<svg xmlns="http://www.w3.org/2000/svg" xmlns:xlink="http://www.w3.org/1999/xlink" width="500" zoomAndPan="magnify" viewBox="0 0 375 374.999991" height="500" preserveAspectRatio="xMidYMid meet" version="1.0"><defs><g/><clipPath id="id1"><path d="M 73.332031 149.710938 L 116.644531 149.710938 L 116.644531 208.8125 L 73.332031 208.8125 Z M 73.332031 149.710938 " clip-rule="nonzero"/></clipPath><clipPath id="id2"><path d="M 73.332031 149.5625 L 116.746094 149.5625 L 116.746094 208.8125 L 73.332031 208.8125 Z M 73.332031 149.5625 " clip-rule="nonzero"/></clipPath></defs><g clip-path="url(#id1)"><path fill="#181c3f" d="M 74.953125 172.609375 C 74.402344 170.441406 75.539062 168.054688 74.804688 165.636719 C 75.980469 166.398438 76.945312 167.386719 77.695312 168.59375 C 77.96875 168.152344 78.277344 167.714844 78.621094 167.269531 C 81.804688 170.632812 83.464844 173.824219 83.601562 176.847656 C 86.585938 179.292969 88.335938 181.96875 88.855469 184.882812 C 88.957031 184.484375 89.0625 184.074219 89.171875 183.652344 C 89.503906 182.355469 89.777344 181.25 90 180.335938 C 91.339844 181.691406 92.402344 183.105469 93.179688 184.574219 C 92.855469 181.976562 93.441406 179.90625 94.835938 178.171875 C 94.171875 175.9375 90.796875 176.550781 89.34375 173.054688 C 88.675781 171.441406 88.472656 169.273438 88.734375 166.550781 C 89.082031 167.082031 89.5625 167.539062 90.167969 167.917969 C 91.164062 168.539062 92.195312 168.777344 93.191406 169.082031 C 93.390625 167.828125 93.894531 166.613281 94.695312 165.445312 C 93.300781 164.527344 91.285156 164.871094 89.949219 162.539062 C 88.871094 160.664062 89.261719 157.070312 88.636719 154.585938 C 89.75 154.835938 90.753906 155.210938 91.65625 155.703125 C 92 153.863281 92.949219 151.890625 94.5 149.777344 C 96.609375 153.425781 97.105469 157.015625 95.992188 160.554688 C 96.328125 161.320312 96.605469 162.152344 96.824219 163.054688 C 97.46875 162.46875 98.199219 161.894531 99.015625 161.332031 C 100.679688 166.773438 100.160156 170.859375 97.453125 173.59375 C 97.539062 174.304688 97.496094 175.082031 97.320312 175.925781 C 98.582031 175.050781 100.113281 174.261719 101.886719 173.515625 C 102.0625 176.25 101.6875 178.535156 100.757812 180.371094 C 99.65625 182.550781 96.621094 184.25 95.714844 186.089844 C 96.394531 185.484375 97.238281 185.027344 98.25 184.710938 C 99.039062 184.460938 99.925781 184.375 100.8125 184.304688 C 101.414062 182.210938 102.53125 179.734375 104.164062 176.875 C 105.210938 177.816406 106.042969 178.808594 106.660156 179.851562 C 107.171875 179.144531 107.828125 178.507812 108.632812 177.945312 C 108.042969 176.820312 106.527344 176.246094 106.359375 173.789062 C 106.179688 171.203125 107.699219 168.324219 107.738281 165.078125 C 108.441406 165.75 109.066406 166.425781 109.613281 167.105469 C 110.3125 164.886719 111.730469 162.46875 113.867188 159.847656 C 114.332031 161.140625 114.550781 162.671875 114.519531 164.441406 C 115.171875 164.109375 115.871094 163.832031 116.625 163.601562 C 116.691406 168.746094 115.296875 172.316406 112.441406 174.3125 C 112.4375 174.933594 112.375 175.558594 112.246094 176.183594 C 113.363281 175.800781 114.617188 175.484375 116.007812 175.234375 C 115.023438 181.273438 112.328125 184.824219 107.929688 185.886719 C 107.871094 186.367188 107.78125 186.859375 107.660156 187.355469 C 108.675781 187.167969 109.769531 187.019531 110.941406 186.90625 C 109.621094 187.742188 107.714844 192.730469 106.117188 194.695312 C 104.664062 196.480469 102.90625 197.882812 100.84375 198.90625 C 99.722656 199.460938 99.34375 199.339844 98.773438 200.570312 C 98.066406 202.09375 97.65625 204.839844 97.550781 208.816406 L 96.707031 208.816406 C 96.75 205.289062 97.226562 203.105469 98.03125 199.554688 C 98.46875 197.640625 97.773438 196.640625 97.933594 194.695312 C 98.082031 192.894531 98.898438 191.398438 100.386719 190.199219 C 100.503906 190.105469 100.625 190.015625 100.75 189.925781 C 100.703125 189.820312 100.65625 189.710938 100.617188 189.601562 C 98.425781 191.351562 95.972656 192.296875 94.363281 194.503906 C 94.109375 195.535156 93.820312 196.375 93.847656 197.613281 C 93.898438 199.890625 94.507812 203.621094 95.675781 208.816406 L 94.746094 208.816406 C 93.34375 202.015625 93.328125 199.214844 92.722656 197.347656 C 92.636719 197.078125 92.554688 196.847656 92.46875 196.660156 C 92.238281 196.140625 91.726562 195.605469 91.148438 194.992188 C 91.285156 197.136719 91.128906 199.539062 91.25 201.371094 C 91.40625 203.75 91.699219 206.230469 92.132812 208.816406 L 90.976562 208.816406 L 90.378906 202.609375 C 90.117188 200.65625 89.558594 199.214844 88.703125 198.296875 C 84.972656 194.277344 81.597656 196.78125 77.710938 187.320312 C 78.953125 187.765625 80.179688 188.148438 81.382812 188.472656 C 81.488281 188.5 81.597656 188.527344 81.707031 188.554688 C 80.769531 187.0625 80.652344 185.371094 80.84375 183.605469 C 78.886719 182.910156 76.171875 183.601562 74.605469 180.644531 C 73.640625 178.824219 73.28125 176.011719 73.523438 172.199219 C 74.015625 172.324219 74.492188 172.460938 74.953125 172.609375 " fill-opacity="1" fill-rule="evenodd"/></g><g clip-path="url(#id2)"><path fill="#274393" d="M 108.066406 185.730469 C 110.054688 185.214844 111.683594 184.175781 112.949219 182.613281 C 114.371094 180.859375 115.339844 178.449219 115.859375 175.378906 C 115.539062 175.441406 115.222656 175.503906 114.917969 175.574219 C 111.4375 176.75 108.925781 178.5625 107.382812 181.011719 C 107.523438 181.34375 107.644531 181.679688 107.746094 182.023438 C 108.09375 183.203125 108.199219 184.441406 108.066406 185.730469 Z M 112.140625 176.09375 C 112.460938 174.480469 112.359375 172.882812 111.84375 171.300781 C 111.1875 169.292969 109.855469 167.3125 107.851562 165.351562 C 107.972656 166.148438 108.058594 167.429688 107.953125 168.714844 C 107.808594 170.527344 107.421875 172.238281 107.617188 174.066406 C 107.742188 175.238281 108.566406 176.285156 109.023438 177.542969 C 109.90625 176.984375 110.945312 176.503906 112.140625 176.09375 Z M 112.5625 174.082031 C 113.773438 173.183594 114.703125 171.980469 115.359375 170.480469 C 116.144531 168.675781 116.527344 166.4375 116.507812 163.761719 C 114.117188 165.125 112.050781 167.683594 111.207031 169.253906 C 111.566406 169.910156 111.855469 170.566406 112.070312 171.230469 C 112.382812 172.175781 112.542969 173.125 112.5625 174.082031 Z M 114.441406 164.347656 C 114.449219 163.753906 114.425781 163.183594 114.378906 162.644531 C 114.289062 161.679688 114.109375 160.800781 113.839844 160.007812 C 112.910156 161.15625 110.996094 166.15625 110.503906 167.785156 C 111.015625 167.035156 111.609375 166.371094 112.28125 165.789062 C 112.929688 165.230469 113.648438 164.75 114.441406 164.347656 Z M 94.707031 188.609375 C 94.988281 190.207031 94.980469 191.863281 94.683594 193.574219 C 94.660156 193.722656 94.632812 193.867188 94.601562 194.003906 C 95.613281 192.796875 96.886719 191.976562 98.203125 191.132812 C 99.539062 190.269531 100.921875 189.382812 102.105469 188.027344 C 102.714844 187.328125 103.242188 186.585938 103.683594 185.792969 C 104.070312 185.105469 104.394531 184.378906 104.65625 183.617188 C 104.570312 183.667969 104.480469 183.714844 104.390625 183.761719 C 101.429688 186.121094 97.054688 184.664062 94.707031 188.609375 Z M 93.664062 185.289062 C 93.855469 185.703125 94.023438 186.125 94.167969 186.546875 C 94.273438 186.851562 94.367188 187.15625 94.453125 187.46875 C 94.75 186.9375 95.121094 186.472656 95.5625 186.066406 C 95.582031 186.050781 95.597656 186.03125 95.617188 186.015625 C 96.066406 185.117188 97 184.261719 97.972656 183.371094 C 99.007812 182.421875 100.089844 181.429688 100.652344 180.320312 C 101.109375 179.414062 101.429688 178.394531 101.617188 177.261719 C 101.796875 176.175781 101.847656 174.984375 101.777344 173.691406 C 101.519531 173.800781 101.269531 173.910156 101.027344 174.019531 C 96.316406 176.914062 93.867188 180.667969 93.664062 185.289062 Z M 95.101562 177.675781 C 95.691406 177.027344 96.394531 176.421875 97.210938 175.855469 C 97.332031 175.265625 97.382812 174.710938 97.375 174.1875 C 97.351562 173.125 97.0625 172.199219 96.507812 171.410156 C 95.394531 169.84375 94.054688 169.453125 92.675781 169.050781 C 91.820312 168.804688 90.953125 168.550781 90.105469 168.019531 C 89.792969 167.824219 89.515625 167.609375 89.269531 167.375 C 89.105469 167.222656 88.960938 167.054688 88.824219 166.882812 C 88.8125 167.046875 88.800781 167.207031 88.789062 167.367188 C 88.976562 169.597656 89.464844 171.367188 90.253906 172.683594 C 91.671875 175.042969 93.8125 174.894531 94.847656 177.007812 C 94.953125 177.21875 95.039062 177.441406 95.101562 177.675781 Z M 89.652344 156.945312 C 90.03125 158.488281 90.167969 160.195312 90.867188 161.574219 C 91.9375 163.679688 93.558594 163.359375 95.042969 164.773438 C 95.511719 164.175781 96.0625 163.589844 96.6875 163.015625 C 96.175781 160.914062 95.332031 159.195312 94.15625 157.855469 C 92.808594 156.320312 91.023438 155.285156 88.800781 154.746094 C 89.097656 155.167969 89.457031 156.144531 89.652344 156.945312 Z M 94.792969 169.578125 C 95.472656 169.933594 96.113281 170.445312 96.703125 171.273438 C 97.132812 171.882812 97.410156 172.570312 97.539062 173.332031 C 98.644531 172.152344 99.351562 170.722656 99.664062 169.050781 C 100.058594 166.9375 99.820312 164.429688 98.949219 161.523438 C 97.007812 163.214844 95.152344 167.40625 94.792969 169.578125 Z M 92.960938 156.410156 C 93.460938 156.792969 93.921875 157.222656 94.339844 157.699219 C 94.980469 158.429688 95.523438 159.265625 95.96875 160.214844 C 96.414062 158.667969 96.550781 157.109375 96.375 155.542969 C 96.171875 153.710938 95.542969 151.863281 94.488281 150 C 93.65625 151.414062 92.972656 154.929688 92.960938 156.410156 Z M 101.898438 184.09375 C 103.019531 183.984375 104.0625 183.800781 104.804688 183.226562 L 105.109375 182.992188 L 104.996094 183.355469 C 104.710938 184.253906 104.34375 185.105469 103.894531 185.910156 C 103.441406 186.714844 102.90625 187.472656 102.289062 188.179688 C 102.121094 188.371094 101.949219 188.554688 101.777344 188.726562 C 101.804688 188.851562 101.835938 188.972656 101.867188 189.089844 C 102.71875 188.632812 103.648438 188.269531 104.59375 187.972656 C 105.492188 187.691406 106.480469 187.453125 107.5625 187.253906 C 108.003906 185.425781 107.988281 183.703125 107.515625 182.089844 C 106.984375 180.28125 105.878906 178.605469 104.195312 177.0625 C 104.070312 177.28125 103.953125 177.496094 103.835938 177.707031 C 102.890625 180.140625 102.246094 182.269531 101.898438 184.09375 Z M 88.734375 184.878906 C 88.625 184.28125 88.464844 183.691406 88.253906 183.117188 C 87.292969 180.515625 85.269531 178.117188 82.183594 175.917969 C 82.179688 175.980469 82.179688 176.042969 82.175781 176.105469 C 83.199219 180.292969 80.898438 184.6875 83.449219 188.742188 C 83.769531 188.789062 84.089844 188.828125 84.414062 188.871094 C 85.742188 189.042969 87.085938 189.21875 88.203125 189.609375 C 88.003906 188.023438 88.3125 186.546875 88.734375 184.878906 Z M 81.652344 178.519531 C 80.914062 176.777344 79.910156 175.523438 78.679688 174.589844 C 77.269531 173.515625 75.5625 172.855469 73.636719 172.347656 C 73.621094 172.570312 73.613281 172.785156 73.601562 173 C 73.878906 175.527344 74.398438 177.511719 75.164062 178.957031 C 76.800781 182.042969 79.246094 181.539062 80.835938 182.738281 C 80.957031 181.941406 81.125 181.128906 81.296875 180.316406 C 81.417969 179.714844 81.542969 179.117188 81.652344 178.519531 Z M 83.464844 176.585938 C 83.378906 175.457031 83.082031 174.304688 82.570312 173.128906 C 81.773438 171.296875 80.460938 169.402344 78.628906 167.453125 C 77.726562 169.214844 77.585938 172.429688 77.59375 173.597656 C 78.023438 173.835938 78.4375 174.101562 78.828125 174.398438 C 80.007812 175.296875 80.988281 176.480469 81.722656 178.089844 C 81.855469 177.277344 81.945312 176.472656 81.945312 175.6875 L 81.945312 175.460938 L 82.132812 175.59375 C 82.601562 175.917969 83.042969 176.25 83.464844 176.585938 Z M 77.554688 168.59375 C 77.320312 168.226562 77.066406 167.878906 76.792969 167.550781 C 76.269531 166.929688 75.675781 166.382812 75.007812 165.914062 C 75.050781 166.101562 75.085938 166.289062 75.113281 166.476562 C 75.734375 168.609375 75.433594 171.136719 75.882812 172.808594 C 75.925781 172.824219 75.96875 172.84375 76.011719 172.859375 C 76.0625 172.351562 76.160156 171.84375 76.308594 171.328125 C 76.570312 170.425781 76.984375 169.515625 77.554688 168.59375 Z M 74.789062 172.429688 C 74.589844 171.460938 74.695312 170.453125 74.808594 169.417969 C 74.9375 168.191406 75.074219 166.929688 74.691406 165.671875 L 74.59375 165.359375 L 74.871094 165.539062 C 75.671875 166.058594 76.375 166.675781 76.980469 167.398438 C 77.234375 167.707031 77.472656 168.027344 77.695312 168.371094 C 77.945312 167.980469 78.222656 167.589844 78.523438 167.199219 L 78.609375 167.085938 L 78.707031 167.1875 C 80.609375 169.195312 81.96875 171.144531 82.789062 173.035156 C 83.347656 174.3125 83.65625 175.566406 83.71875 176.792969 C 86.070312 178.726562 87.65625 180.804688 88.476562 183.035156 C 88.636719 183.464844 88.769531 183.902344 88.871094 184.34375 L 88.910156 184.179688 L 89.054688 183.625 C 89.222656 182.960938 89.375 182.359375 89.511719 181.824219 C 89.640625 181.292969 89.765625 180.789062 89.882812 180.308594 L 89.933594 180.097656 L 90.085938 180.25 C 91.277344 181.457031 92.25 182.707031 93 184.003906 C 92.84375 181.921875 93.300781 180.1875 94.308594 178.6875 C 94.433594 178.503906 94.5625 178.324219 94.703125 178.144531 C 94.398438 177.222656 93.578125 176.816406 92.640625 176.347656 C 91.4375 175.75 90.042969 175.054688 89.234375 173.101562 C 88.894531 172.285156 88.671875 171.328125 88.570312 170.230469 C 88.46875 169.140625 88.484375 167.910156 88.617188 166.539062 L 88.648438 166.199219 L 88.835938 166.484375 C 89.003906 166.742188 89.207031 166.984375 89.4375 167.207031 C 89.671875 167.429688 89.933594 167.632812 90.230469 167.816406 C 91.054688 168.332031 91.90625 168.578125 92.742188 168.824219 C 92.859375 168.859375 92.980469 168.890625 93.097656 168.925781 C 93.277344 167.886719 93.667969 166.875 94.265625 165.890625 C 94.347656 165.753906 94.4375 165.617188 94.527344 165.480469 C 94.097656 165.21875 93.605469 165.070312 93.097656 164.910156 C 91.96875 164.5625 90.753906 164.191406 89.84375 162.597656 C 89.195312 161.464844 89.070312 159.738281 88.945312 158 C 88.859375 156.8125 88.773438 155.617188 88.519531 154.613281 L 88.472656 154.425781 L 88.664062 154.46875 C 89.726562 154.710938 90.695312 155.0625 91.570312 155.523438 C 91.691406 154.917969 91.878906 154.300781 92.132812 153.667969 C 92.632812 152.40625 93.390625 151.085938 94.40625 149.710938 L 94.515625 149.5625 L 94.605469 149.71875 C 95.730469 151.664062 96.398438 153.597656 96.613281 155.515625 C 96.804688 157.203125 96.640625 158.882812 96.121094 160.546875 C 96.429688 161.253906 96.6875 162.015625 96.890625 162.832031 C 97.503906 162.289062 98.191406 161.757812 98.945312 161.234375 L 99.082031 161.140625 L 99.132812 161.296875 C 100.050781 164.304688 100.308594 166.902344 99.898438 169.09375 C 99.566406 170.882812 98.792969 172.394531 97.578125 173.636719 C 97.597656 173.816406 97.609375 173.996094 97.613281 174.183594 C 97.625 174.652344 97.582031 175.144531 97.492188 175.664062 C 98.714844 174.851562 100.167969 174.109375 101.839844 173.40625 L 101.996094 173.339844 L 102.007812 173.507812 C 102.09375 174.882812 102.042969 176.148438 101.855469 177.300781 C 101.664062 178.453125 101.335938 179.496094 100.867188 180.425781 C 100.285156 181.574219 99.1875 182.582031 98.132812 183.546875 C 97.378906 184.238281 96.652344 184.90625 96.164062 185.582031 C 96.75 185.167969 97.433594 184.839844 98.214844 184.597656 C 98.992188 184.351562 99.855469 184.261719 100.71875 184.191406 C 101.328125 182.109375 102.441406 179.648438 104.058594 176.816406 L 104.132812 176.6875 L 104.246094 176.785156 C 105.25 177.691406 106.058594 178.640625 106.671875 179.632812 C 107.152344 179.003906 107.753906 178.425781 108.476562 177.910156 C 108.296875 177.601562 108.046875 177.332031 107.777344 177.042969 C 107.117188 176.332031 106.355469 175.515625 106.238281 173.796875 C 106.148438 172.464844 106.496094 171.070312 106.867188 169.589844 C 107.222656 168.164062 107.597656 166.660156 107.617188 165.078125 L 107.621094 164.800781 L 107.820312 164.992188 C 108.480469 165.625 109.074219 166.257812 109.597656 166.894531 C 109.882812 166.035156 110.277344 165.140625 110.777344 164.21875 C 111.539062 162.816406 112.546875 161.339844 113.808594 159.796875 L 113.898438 159.6875 L 113.945312 159.820312 C 114.246094 160.660156 114.441406 161.59375 114.535156 162.632812 C 114.585938 163.152344 114.605469 163.695312 114.601562 164.265625 C 115.21875 163.960938 115.882812 163.703125 116.589844 163.488281 L 116.742188 163.445312 L 116.746094 163.601562 C 116.78125 166.378906 116.390625 168.703125 115.578125 170.574219 C 114.882812 172.171875 113.878906 173.441406 112.5625 174.375 C 112.558594 174.917969 112.503906 175.460938 112.402344 176.003906 C 113.476562 175.652344 114.671875 175.355469 115.984375 175.117188 L 116.152344 175.085938 L 116.125 175.25 C 115.605469 178.441406 114.609375 180.945312 113.136719 182.761719 C 111.820312 184.390625 110.121094 185.464844 108.039062 185.984375 C 107.988281 186.386719 107.914062 186.792969 107.820312 187.207031 C 108.785156 187.035156 109.824219 186.894531 110.929688 186.785156 L 111.429688 186.738281 L 111.007812 187.003906 C 110.300781 187.453125 109.398438 189.179688 108.464844 190.957031 C 107.707031 192.402344 106.929688 193.882812 106.210938 194.769531 C 104.753906 196.558594 102.976562 197.980469 100.894531 199.011719 C 100.640625 199.136719 100.429688 199.226562 100.246094 199.304688 C 99.621094 199.570312 99.308594 199.703125 98.882812 200.621094 C 98.496094 201.449219 98.203125 202.644531 97.996094 204.214844 C 97.828125 205.5 97.71875 207.035156 97.667969 208.816406 L 97.429688 208.816406 C 97.476562 207.023438 97.585938 205.476562 97.757812 204.183594 C 97.96875 202.589844 98.269531 201.371094 98.664062 200.523438 C 99.128906 199.519531 99.472656 199.375 100.148438 199.085938 C 100.335938 199.007812 100.546875 198.917969 100.789062 198.800781 C 102.835938 197.785156 104.589844 196.382812 106.023438 194.621094 C 106.726562 193.753906 107.5 192.285156 108.25 190.847656 C 109.054688 189.3125 109.839844 187.816406 110.523438 187.105469 C 110.089844 187.304688 109.355469 187.628906 108.472656 187.949219 C 107.226562 188.398438 105.933594 188.773438 104.707031 189.1875 C 99.359375 190.992188 98.777344 193.109375 98.269531 197.683594 C 98.320312 198.253906 98.316406 198.851562 98.148438 199.582031 C 97.703125 201.542969 97.359375 203.085938 97.132812 204.671875 C 96.953125 205.945312 96.847656 207.25 96.828125 208.816406 L 96.589844 208.816406 C 96.609375 207.234375 96.714844 205.921875 96.894531 204.636719 C 97.125 203.046875 97.46875 201.496094 97.914062 199.53125 C 98.15625 198.480469 98.046875 197.703125 97.929688 196.886719 C 97.835938 196.230469 97.742188 195.550781 97.8125 194.683594 C 97.988281 192.550781 99.078125 191.007812 100.601562 189.886719 C 100.589844 189.855469 100.574219 189.828125 100.5625 189.796875 C 99.832031 190.367188 99.078125 190.851562 98.335938 191.332031 C 96.894531 192.253906 95.507812 193.148438 94.472656 194.558594 C 94.433594 194.722656 94.390625 194.882812 94.351562 195.039062 C 94.140625 195.851562 93.945312 196.597656 93.96875 197.613281 C 93.992188 198.75 94.160156 200.253906 94.464844 202.125 C 94.773438 203.992188 95.214844 206.222656 95.800781 208.816406 L 95.554688 208.816406 C 94.976562 206.238281 94.535156 204.019531 94.230469 202.160156 C 93.921875 200.28125 93.753906 198.765625 93.726562 197.617188 C 93.703125 196.570312 93.902344 195.808594 94.117188 194.980469 C 94.234375 194.539062 94.355469 194.074219 94.449219 193.535156 C 94.867188 191.113281 94.695312 188.808594 93.941406 186.625 C 93.207031 184.496094 91.914062 182.480469 90.066406 180.574219 C 90.019531 180.753906 89.972656 180.949219 89.921875 181.152344 C 89.617188 184.148438 88.945312 188.203125 89.679688 190.789062 C 90.433594 193.445312 92.070312 194.203125 92.808594 196.359375 C 93.03125 197 93.199219 197.746094 93.320312 198.601562 C 93.910156 202.90625 94.511719 206.308594 95.113281 208.816406 L 94.621094 208.816406 C 93.878906 205.203125 93.523438 202.722656 93.265625 200.910156 C 93.042969 199.320312 92.886719 198.246094 92.609375 197.382812 C 92.570312 197.253906 92.527344 197.132812 92.484375 197.015625 C 92.441406 196.902344 92.398438 196.800781 92.359375 196.707031 C 92.167969 196.277344 91.761719 195.820312 91.289062 195.3125 C 91.335938 196.320312 91.332031 197.371094 91.324219 198.386719 C 91.316406 199.449219 91.3125 200.472656 91.371094 201.367188 C 91.453125 202.660156 91.582031 203.988281 91.75 205.347656 C 91.890625 206.480469 92.058594 207.636719 92.253906 208.816406 L 92.011719 208.816406 C 91.816406 207.644531 91.648438 206.5 91.511719 205.375 C 91.34375 204.015625 91.214844 202.683594 91.128906 201.378906 C 91.070312 200.488281 91.078125 199.457031 91.085938 198.386719 C 91.089844 197.277344 91.097656 196.128906 91.03125 195.042969 C 90.363281 194.328125 89.613281 193.511719 89.101562 192.488281 C 88.640625 191.554688 88.371094 190.699219 88.238281 189.878906 C 87.125 189.460938 85.746094 189.285156 84.382812 189.105469 C 83.320312 188.96875 82.269531 188.832031 81.351562 188.585938 C 80.746094 188.425781 80.136719 188.25 79.523438 188.054688 C 78.996094 187.890625 78.464844 187.710938 77.921875 187.523438 C 77.992188 187.683594 78.058594 187.84375 78.128906 188 C 79.765625 190.566406 81.601562 192.402344 83.636719 193.5 C 85.78125 194.65625 87.089844 194.496094 88.742188 196.847656 C 89.511719 197.945312 90.070312 199.324219 90.40625 200.984375 C 90.6875 202.683594 90.988281 205.296875 91.308594 208.816406 L 90.855469 208.816406 L 90.257812 202.625 C 90.128906 201.65625 89.925781 200.816406 89.652344 200.109375 C 89.378906 199.402344 89.03125 198.824219 88.613281 198.375 C 87.320312 196.980469 86.0625 196.378906 84.8125 195.78125 C 82.464844 194.65625 80.136719 193.542969 77.597656 187.363281 L 77.496094 187.117188 L 77.75 187.207031 C 78.367188 187.429688 78.984375 187.636719 79.597656 187.828125 C 80.210938 188.019531 80.816406 188.195312 81.414062 188.355469 L 81.453125 188.367188 C 80.648438 186.941406 80.542969 185.347656 80.710938 183.6875 C 80.191406 183.515625 79.621094 183.433594 79.035156 183.351562 C 77.402344 183.121094 75.652344 182.878906 74.5 180.699219 C 74.011719 179.777344 73.675781 178.605469 73.492188 177.183594 C 73.3125 175.769531 73.28125 174.101562 73.40625 172.191406 L 73.414062 172.046875 L 73.554688 172.082031 C 73.976562 172.191406 74.386719 172.308594 74.789062 172.429688 " fill-opacity="1" fill-rule="evenodd"/></g><g fill="#274393" fill-opacity="1"><g transform="translate(121.869239, 178.658573)"><g><path d="M 3.347656 0.457031 C 5.007812 0.457031 7.515625 -0.964844 8.695312 -2.023438 C 9.632812 -2.816406 10.453125 -3.734375 11.246094 -4.671875 C 11.269531 -4.71875 11.320312 -4.769531 11.34375 -4.816406 C 11.367188 -4.839844 11.414062 -4.890625 11.4375 -4.9375 C 11.511719 -5.082031 11.511719 -5.203125 11.390625 -5.296875 C 11.34375 -5.347656 11.269531 -5.371094 11.199219 -5.371094 C 11.148438 -5.371094 11.101562 -5.347656 11.03125 -5.320312 C 10.957031 -5.25 10.859375 -5.152344 10.789062 -5.082031 C 10.714844 -4.984375 10.621094 -4.890625 10.546875 -4.816406 C 8.863281 -2.816406 7.105469 -1.253906 4.625 -0.410156 C 4.167969 -0.242188 3.757812 -0.167969 3.394531 -0.167969 C 2.359375 -0.191406 1.566406 -0.578125 1.082031 -1.515625 C 0.625 -2.359375 0.53125 -3.226562 0.625 -4.117188 C 1.082031 -7.996094 2.792969 -11.921875 6.285156 -13.824219 C 6.742188 -14.039062 7.175781 -14.207031 7.609375 -14.328125 C 7.777344 -14.351562 7.898438 -14.378906 8.019531 -14.378906 C 8.621094 -14.378906 8.933594 -14.015625 8.984375 -13.292969 C 9.03125 -12.980469 9.007812 -12.644531 8.886719 -12.28125 C 8.523438 -10.933594 7.5625 -9.5625 6.71875 -8.476562 C 6.597656 -8.355469 6.574219 -8.261719 6.621094 -8.140625 C 6.648438 -8.089844 6.71875 -8.066406 6.792969 -8.066406 C 6.960938 -8.066406 7.105469 -8.1875 7.199219 -8.355469 C 8.164062 -9.585938 9.152344 -10.886719 9.511719 -12.425781 C 9.632812 -12.882812 9.632812 -13.292969 9.535156 -13.679688 C 9.34375 -14.640625 8.839844 -15.003906 7.875 -15.003906 C 5.730469 -14.761719 3.417969 -12.738281 2.3125 -10.933594 C 1.203125 -9.246094 0 -5.898438 0 -3.851562 C -0.0234375 -2.671875 0.167969 -1.734375 0.722656 -0.890625 C 1.300781 0.046875 2.289062 0.457031 3.347656 0.457031 Z M 3.347656 0.457031 "/></g></g></g><g fill="#274393" fill-opacity="1"><g transform="translate(132.152224, 178.658573)"><g><path d="M 0.359375 1.855469 C 0.433594 1.855469 0.503906 1.855469 0.554688 1.832031 C 0.675781 1.804688 0.792969 1.757812 0.914062 1.710938 C 1.035156 1.636719 1.15625 1.589844 1.277344 1.515625 C 2.070312 1.15625 2.914062 0.9375 3.757812 0.820312 C 5.179688 0.625 6.503906 0.3125 7.851562 0 C 8.066406 -0.0234375 8.453125 -0.121094 8.453125 -0.386719 C 8.476562 -0.554688 8.355469 -0.722656 8.1875 -0.699219 C 8.089844 -0.699219 7.972656 -0.648438 7.875 -0.625 C 6.839844 -0.410156 5.828125 -0.167969 4.792969 0.0234375 C 4.191406 0.144531 3.5625 0.242188 2.960938 0.359375 C 2.335938 0.457031 1.734375 0.625 1.132812 0.890625 C 1.058594 0.914062 1.011719 0.914062 0.988281 0.890625 C 0.914062 0.890625 0.890625 0.867188 0.890625 0.792969 C 0.964844 0.578125 1.011719 0.386719 1.082031 0.191406 C 2.046875 -2.867188 3.058594 -5.851562 4.09375 -8.863281 C 4.503906 -10.019531 4.984375 -11.148438 5.539062 -12.257812 L 6.117188 -13.460938 C 6.1875 -13.582031 6.214844 -13.679688 6.1875 -13.847656 C 6.164062 -13.945312 6.117188 -13.992188 6.042969 -13.992188 C 5.972656 -14.015625 5.925781 -14.015625 5.898438 -13.992188 C 5.609375 -13.824219 4.914062 -12.304688 4.601562 -11.582031 C 4.285156 -10.859375 3.5625 -9.101562 3.445312 -8.8125 C 2.839844 -7.199219 2.289062 -5.5625 1.78125 -3.925781 C 1.277344 -2.265625 0.699219 -0.625 0.0976562 1.011719 L 0.0234375 1.324219 C -0.046875 1.6875 0.046875 1.855469 0.359375 1.855469 Z M 0.359375 1.855469 "/></g></g></g><g fill="#274393" fill-opacity="1"><g transform="translate(138.919252, 178.658573)"><g><path d="M 0.289062 2.09375 C 0.457031 2.09375 0.554688 2.070312 0.675781 2 C 1.15625 1.855469 1.636719 1.734375 2.121094 1.636719 C 3.035156 1.515625 4.914062 1.226562 5.730469 0.820312 C 5.996094 0.699219 6.070312 0.480469 5.949219 0.3125 C 5.925781 0.242188 5.851562 0.191406 5.730469 0.191406 C 5.609375 0.191406 5.539062 0.214844 5.464844 0.242188 C 4.71875 0.53125 3.972656 0.699219 3.179688 0.820312 C 3.128906 0.84375 3.058594 0.84375 2.984375 0.84375 C 2.816406 0.84375 2.746094 0.699219 2.816406 0.386719 C 3.949219 -3.78125 5.25 -7.753906 6.597656 -11.871094 C 6.71875 -12.257812 6.960938 -12.476562 7.34375 -12.546875 C 8.308594 -12.8125 9.273438 -13.050781 10.234375 -13.316406 C 10.5 -13.390625 10.691406 -13.460938 10.910156 -13.582031 C 11.03125 -13.65625 11.101562 -13.75 11.078125 -13.894531 C 11.078125 -14.015625 10.933594 -14.183594 10.835938 -14.160156 C 10.714844 -14.136719 10.621094 -14.089844 10.546875 -14.0625 C 10.042969 -13.871094 9.511719 -13.703125 8.984375 -13.582031 C 8.429688 -13.460938 7.898438 -13.316406 7.371094 -13.171875 C 7.273438 -13.171875 7.152344 -13.195312 7.152344 -13.316406 C 7.128906 -13.484375 7.054688 -13.65625 6.886719 -13.679688 L 6.816406 -13.679688 C 6.742188 -13.679688 6.671875 -13.65625 6.621094 -13.582031 C 6.574219 -13.511719 6.527344 -13.460938 6.476562 -13.390625 L 6.40625 -13.246094 C 6.332031 -12.980469 6.140625 -12.835938 5.828125 -12.789062 C 5.152344 -12.644531 2.914062 -11.96875 2.554688 -11.367188 C 2.480469 -11.246094 2.503906 -11.148438 2.578125 -11.078125 C 2.625 -11.003906 2.695312 -10.980469 2.792969 -10.980469 C 2.867188 -10.980469 2.9375 -11.003906 2.984375 -11.054688 C 3.828125 -11.703125 4.792969 -11.871094 5.753906 -12.136719 L 5.828125 -12.136719 C 5.949219 -12.136719 5.972656 -12.089844 5.949219 -11.96875 C 5.925781 -11.847656 5.898438 -11.753906 5.875 -11.65625 C 5.851562 -11.558594 5.804688 -11.464844 5.78125 -11.367188 C 5.492188 -10.5 5.203125 -9.65625 4.9375 -8.8125 C 4.648438 -7.972656 4.359375 -7.128906 4.09375 -6.261719 C 3.734375 -5.179688 3.394531 -4.117188 3.128906 -3.035156 C 2.839844 -1.949219 2.527344 -0.84375 2.214844 0.242188 L 2.046875 0.769531 C 2 0.9375 1.902344 1.035156 1.734375 1.082031 C 1.347656 1.15625 0.964844 1.253906 0.578125 1.371094 C 0.433594 1.421875 0.265625 1.492188 0.0976562 1.613281 C 0 1.660156 -0.0234375 1.757812 0 1.902344 C 0.0703125 2.046875 0.167969 2.121094 0.289062 2.09375 Z M 0.289062 2.09375 "/></g></g></g><g fill="#274393" fill-opacity="1"><g transform="translate(146.143838, 178.658573)"><g><path d="M 0.53125 3.683594 C 0.601562 3.683594 0.675781 3.683594 0.699219 3.660156 C 0.890625 3.613281 1.058594 3.515625 1.226562 3.347656 C 1.347656 3.226562 1.46875 3.082031 1.589844 2.960938 C 1.710938 2.839844 1.804688 2.695312 1.902344 2.578125 C 2.121094 2.265625 2.335938 1.925781 2.554688 1.589844 C 2.769531 1.253906 2.960938 0.914062 3.179688 0.578125 C 3.851562 -0.480469 4.480469 -1.566406 5.128906 -2.648438 C 6.070312 -4.191406 7.105469 -5.925781 8.476562 -7.105469 C 8.667969 -7.273438 8.863281 -7.394531 9.054688 -7.515625 C 9.078125 -7.539062 9.101562 -7.539062 9.152344 -7.539062 C 9.273438 -7.539062 9.34375 -7.488281 9.367188 -7.371094 C 9.390625 -7.25 9.390625 -7.152344 9.417969 -7.054688 C 9.417969 -6.960938 9.417969 -6.863281 9.441406 -6.742188 L 9.441406 -5.394531 C 9.367188 -4.550781 9.390625 -3.804688 9.511719 -2.960938 C 9.730469 -2.070312 9.921875 -1.226562 10.886719 -1.226562 C 10.910156 -1.226562 10.957031 -1.226562 11.003906 -1.253906 C 11.03125 -1.253906 11.078125 -1.253906 11.125 -1.253906 C 11.488281 -1.324219 11.824219 -1.46875 12.136719 -1.6875 C 12.738281 -2.09375 14.761719 -4.359375 15.027344 -5.035156 C 15.050781 -5.152344 15.027344 -5.25 14.90625 -5.296875 C 14.859375 -5.347656 14.8125 -5.371094 14.738281 -5.371094 C 14.570312 -5.371094 14.378906 -5.058594 14.304688 -4.960938 C 13.824219 -4.359375 12.304688 -2.554688 11.847656 -2.238281 C 11.582031 -2.070312 11.34375 -1.902344 10.980469 -1.878906 C 10.714844 -1.878906 10.570312 -1.902344 10.402344 -2.167969 C 10.234375 -2.480469 10.1875 -2.792969 10.113281 -3.15625 C 9.996094 -4.09375 9.96875 -4.960938 10.042969 -5.898438 C 10.066406 -6.164062 10.066406 -6.429688 10.066406 -6.695312 C 10.066406 -6.960938 10.042969 -7.226562 9.996094 -7.488281 C 9.898438 -7.972656 9.65625 -8.210938 9.273438 -8.210938 C 8.332031 -8.210938 6.765625 -6.238281 6.238281 -5.515625 C 5.5625 -4.574219 4.960938 -3.589844 4.359375 -2.601562 L 2.265625 0.914062 C 1.855469 1.566406 1.445312 2.191406 0.890625 2.746094 C 0.84375 2.792969 0.792969 2.792969 0.769531 2.769531 C 0.699219 2.769531 0.675781 2.746094 0.675781 2.671875 C 0.699219 2.554688 0.699219 2.457031 0.699219 2.359375 C 0.699219 2.238281 0.722656 2.144531 0.746094 2.046875 C 0.867188 1.636719 0.964844 1.203125 1.058594 0.792969 C 1.15625 0.359375 1.253906 -0.0703125 1.371094 -0.480469 C 2.214844 -3.492188 3.347656 -6.308594 4.671875 -9.175781 L 6.359375 -12.882812 C 6.40625 -12.980469 6.453125 -13.078125 6.503906 -13.171875 C 6.550781 -13.269531 6.574219 -13.367188 6.550781 -13.484375 C 6.527344 -13.605469 6.476562 -13.65625 6.429688 -13.679688 C 6.359375 -13.703125 6.332031 -13.726562 6.308594 -13.726562 C 6.261719 -13.726562 6.214844 -13.703125 6.140625 -13.679688 C 6.042969 -13.605469 5.972656 -13.511719 5.949219 -13.414062 C 5.898438 -13.316406 5.851562 -13.222656 5.804688 -13.148438 C 5.394531 -12.210938 4.960938 -11.320312 4.550781 -10.425781 C 2.695312 -6.476562 1.082031 -2.410156 0.144531 1.855469 C 0.046875 2.335938 -0.046875 2.792969 0.046875 3.273438 C 0.0976562 3.539062 0.265625 3.683594 0.53125 3.683594 Z M 0.53125 3.683594 "/></g></g></g><g fill="#274393" fill-opacity="1"><g transform="translate(159.96687, 178.658573)"><g><path d="M 0.289062 2.09375 C 0.457031 2.09375 0.554688 2.070312 0.675781 2 C 1.15625 1.855469 1.636719 1.734375 2.121094 1.636719 C 3.035156 1.515625 4.914062 1.226562 5.730469 0.820312 C 5.996094 0.699219 6.070312 0.480469 5.949219 0.3125 C 5.925781 0.242188 5.851562 0.191406 5.730469 0.191406 C 5.609375 0.191406 5.539062 0.214844 5.464844 0.242188 C 4.71875 0.53125 3.972656 0.699219 3.179688 0.820312 C 3.128906 0.84375 3.058594 0.84375 2.984375 0.84375 C 2.816406 0.84375 2.746094 0.699219 2.816406 0.386719 C 3.949219 -3.78125 5.25 -7.753906 6.597656 -11.871094 C 6.71875 -12.257812 6.960938 -12.476562 7.34375 -12.546875 C 8.308594 -12.8125 9.273438 -13.050781 10.234375 -13.316406 C 10.5 -13.390625 10.691406 -13.460938 10.910156 -13.582031 C 11.03125 -13.65625 11.101562 -13.75 11.078125 -13.894531 C 11.078125 -14.015625 10.933594 -14.183594 10.835938 -14.160156 C 10.714844 -14.136719 10.621094 -14.089844 10.546875 -14.0625 C 10.042969 -13.871094 9.511719 -13.703125 8.984375 -13.582031 C 8.429688 -13.460938 7.898438 -13.316406 7.371094 -13.171875 C 7.273438 -13.171875 7.152344 -13.195312 7.152344 -13.316406 C 7.128906 -13.484375 7.054688 -13.65625 6.886719 -13.679688 L 6.816406 -13.679688 C 6.742188 -13.679688 6.671875 -13.65625 6.621094 -13.582031 C 6.574219 -13.511719 6.527344 -13.460938 6.476562 -13.390625 L 6.40625 -13.246094 C 6.332031 -12.980469 6.140625 -12.835938 5.828125 -12.789062 C 5.152344 -12.644531 2.914062 -11.96875 2.554688 -11.367188 C 2.480469 -11.246094 2.503906 -11.148438 2.578125 -11.078125 C 2.625 -11.003906 2.695312 -10.980469 2.792969 -10.980469 C 2.867188 -10.980469 2.9375 -11.003906 2.984375 -11.054688 C 3.828125 -11.703125 4.792969 -11.871094 5.753906 -12.136719 L 5.828125 -12.136719 C 5.949219 -12.136719 5.972656 -12.089844 5.949219 -11.96875 C 5.925781 -11.847656 5.898438 -11.753906 5.875 -11.65625 C 5.851562 -11.558594 5.804688 -11.464844 5.78125 -11.367188 C 5.492188 -10.5 5.203125 -9.65625 4.9375 -8.8125 C 4.648438 -7.972656 4.359375 -7.128906 4.09375 -6.261719 C 3.734375 -5.179688 3.394531 -4.117188 3.128906 -3.035156 C 2.839844 -1.949219 2.527344 -0.84375 2.214844 0.242188 L 2.046875 0.769531 C 2 0.9375 1.902344 1.035156 1.734375 1.082031 C 1.347656 1.15625 0.964844 1.253906 0.578125 1.371094 C 0.433594 1.421875 0.265625 1.492188 0.0976562 1.613281 C 0 1.660156 -0.0234375 1.757812 0 1.902344 C 0.0703125 2.046875 0.167969 2.121094 0.289062 2.09375 Z M 0.289062 2.09375 "/></g></g></g><g fill="#274393" fill-opacity="1"><g transform="translate(167.191456, 178.658573)"><g><path d="M 3.902344 1.542969 C 5.179688 1.542969 6.261719 0.480469 7.082031 -0.457031 C 9.5625 -3.371094 10.714844 -6.792969 10.980469 -10.570312 C 11.054688 -11.222656 10.933594 -11.871094 10.765625 -12.523438 C 10.378906 -14.257812 8.71875 -15.363281 7.054688 -15.363281 C 5.5625 -15.363281 4.261719 -14.304688 3.15625 -13.339844 C 2.578125 -12.765625 1.636719 -11.390625 1.636719 -10.546875 C 1.636719 -10.425781 1.6875 -10.355469 1.804688 -10.332031 C 1.832031 -10.308594 1.878906 -10.308594 1.949219 -10.308594 C 2.070312 -10.308594 2.121094 -10.332031 2.144531 -10.402344 C 2.214844 -10.5 2.265625 -10.597656 2.289062 -10.691406 C 2.3125 -10.789062 2.359375 -10.886719 2.382812 -10.980469 C 2.578125 -11.464844 2.722656 -11.921875 3.082031 -12.332031 C 3.996094 -13.367188 5.585938 -14.738281 7.03125 -14.738281 C 8.378906 -14.738281 9.730469 -13.894531 10.113281 -12.546875 C 10.308594 -11.898438 10.355469 -11.246094 10.355469 -10.476562 C 10.234375 -7.007812 8.667969 -3.273438 6.429688 -0.648438 C 5.78125 0.046875 4.960938 0.890625 3.925781 0.890625 C 2.554688 0.890625 1.613281 -0.3125 1.421875 -1.636719 C 1.347656 -2.09375 1.347656 -2.527344 1.371094 -2.984375 C 1.542969 -6.09375 2.625 -9.054688 4.550781 -11.488281 C 4.960938 -11.992188 5.394531 -12.5 6.070312 -12.691406 C 6.09375 -12.714844 6.140625 -12.738281 6.1875 -12.789062 C 6.308594 -12.882812 6.285156 -13.125 6.117188 -13.195312 C 6.019531 -13.222656 5.949219 -13.246094 5.898438 -13.246094 C 5.875 -13.246094 5.851562 -13.246094 5.828125 -13.246094 C 5.804688 -13.222656 5.78125 -13.222656 5.753906 -13.222656 C 5.394531 -13.148438 5.179688 -12.980469 4.914062 -12.789062 C 2.601562 -10.667969 1.226562 -7.082031 0.84375 -4.023438 C 0.746094 -3.179688 0.699219 -2.335938 0.820312 -1.492188 C 1.035156 0.0234375 2.023438 1.300781 3.589844 1.515625 C 3.636719 1.542969 3.683594 1.542969 3.757812 1.542969 C 3.804688 1.542969 3.851562 1.542969 3.902344 1.542969 Z M 7.753906 4.070312 C 7.851562 4.046875 7.945312 4.046875 8.042969 4.046875 C 8.117188 4.046875 8.210938 4.023438 8.308594 3.996094 C 8.429688 3.972656 8.523438 3.902344 8.621094 3.78125 C 8.71875 3.660156 8.71875 3.539062 8.644531 3.417969 C 8.597656 3.324219 8.523438 3.273438 8.429688 3.273438 C 8.378906 3.273438 8.355469 3.273438 8.332031 3.300781 C 8.164062 3.371094 7.996094 3.417969 7.777344 3.417969 C 7.007812 3.417969 5.585938 2.816406 4.914062 2.457031 C 4.214844 2.070312 3.515625 1.734375 2.671875 1.734375 C 1.832031 1.734375 1.035156 2.070312 0.3125 2.746094 C 0.144531 2.914062 0 3.035156 0 3.300781 C 0 3.371094 0.0234375 3.417969 0.0976562 3.492188 C 0.121094 3.515625 0.191406 3.515625 0.265625 3.515625 L 0.3125 3.515625 C 0.386719 3.46875 0.457031 3.417969 0.503906 3.371094 C 0.554688 3.300781 0.601562 3.25 0.675781 3.203125 C 1.277344 2.648438 1.925781 2.359375 2.625 2.359375 C 3.394531 2.359375 4.117188 2.722656 4.769531 3.105469 C 5.730469 3.613281 6.695312 3.902344 7.753906 4.070312 Z M 7.753906 4.070312 "/></g></g></g><g fill="#274393" fill-opacity="1"><g transform="translate(178.654464, 178.658573)"><g><path d="M 1.515625 1.832031 C 1.925781 1.832031 2.214844 1.636719 2.503906 1.371094 C 2.867188 1.109375 3.128906 0.769531 3.417969 0.410156 C 3.972656 -0.335938 4.429688 -1.082031 4.890625 -1.925781 L 7.128906 -6.261719 C 7.464844 -6.910156 7.828125 -7.5625 8.234375 -8.261719 C 8.308594 -8.40625 8.40625 -8.550781 8.523438 -8.695312 C 8.644531 -8.8125 8.742188 -8.957031 8.839844 -9.078125 C 8.863281 -9.152344 8.910156 -9.175781 8.984375 -9.175781 C 9.007812 -9.175781 9.03125 -9.175781 9.054688 -9.152344 C 9.128906 -9.128906 9.152344 -9.054688 9.128906 -8.984375 C 9.101562 -8.8125 9.078125 -8.644531 9.054688 -8.476562 C 9.03125 -8.308594 8.984375 -8.140625 8.957031 -7.972656 C 8.695312 -6.816406 8.453125 -5.660156 8.1875 -4.503906 C 7.972656 -3.5625 7.875 -2.648438 7.800781 -1.710938 C 7.800781 -1.011719 8.019531 0.335938 8.8125 0.335938 C 9.03125 0.335938 9.246094 0.242188 9.464844 0.046875 C 9.777344 -0.242188 10.019531 -0.554688 10.285156 -0.914062 L 12.160156 -3.757812 C 12.28125 -3.949219 12.425781 -4.140625 12.570312 -4.335938 C 12.691406 -4.527344 12.835938 -4.71875 12.957031 -4.9375 C 13.027344 -5.058594 13.027344 -5.179688 12.910156 -5.273438 C 12.859375 -5.347656 12.789062 -5.371094 12.691406 -5.371094 C 12.621094 -5.371094 12.546875 -5.347656 12.5 -5.296875 C 12.234375 -5.082031 12.089844 -4.816406 11.921875 -4.550781 C 10.886719 -2.9375 10.257812 -1.949219 9.609375 -1.058594 C 9.441406 -0.792969 9.222656 -0.625 9.007812 -0.433594 C 8.933594 -0.359375 8.886719 -0.335938 8.839844 -0.335938 C 8.765625 -0.335938 8.71875 -0.386719 8.644531 -0.503906 C 8.429688 -0.988281 8.378906 -1.492188 8.453125 -1.976562 C 8.523438 -2.816406 8.621094 -3.613281 8.789062 -4.40625 C 8.957031 -5.179688 9.152344 -5.949219 9.320312 -6.71875 C 9.488281 -7.464844 9.65625 -8.234375 9.777344 -9.03125 C 9.800781 -9.296875 9.824219 -9.535156 9.65625 -9.800781 C 9.535156 -9.996094 9.390625 -10.089844 9.199219 -10.089844 C 9.175781 -10.089844 9.152344 -10.089844 9.152344 -10.089844 C 9.128906 -10.066406 9.101562 -10.066406 9.078125 -10.066406 C 8.910156 -10.019531 8.789062 -9.945312 8.667969 -9.824219 C 7.800781 -8.789062 7.25 -7.851562 6.621094 -6.648438 C 5.851562 -5.105469 5.058594 -3.636719 4.261719 -2.121094 C 3.683594 -1.035156 3.058594 0.0234375 2.121094 0.867188 C 1.855469 1.082031 1.6875 1.179688 1.566406 1.179688 C 0.964844 1.179688 0.625 -0.53125 0.625 -1.109375 C 0.554688 -2.554688 0.746094 -3.972656 1.058594 -5.417969 C 1.636719 -7.996094 2.457031 -10.425781 3.683594 -12.8125 C 3.707031 -12.882812 3.757812 -12.980469 3.804688 -13.078125 C 3.851562 -13.148438 3.902344 -13.246094 3.925781 -13.316406 C 3.949219 -13.390625 3.972656 -13.535156 3.972656 -13.703125 C 3.972656 -13.824219 3.925781 -13.894531 3.828125 -13.945312 C 3.804688 -13.96875 3.78125 -13.96875 3.734375 -13.96875 C 3.660156 -13.96875 3.613281 -13.945312 3.539062 -13.871094 C 3.515625 -13.800781 3.46875 -13.75 3.445312 -13.703125 C 3.394531 -13.628906 3.347656 -13.582031 3.324219 -13.535156 C 2.457031 -11.871094 1.613281 -9.851562 1.035156 -7.800781 C 0.433594 -5.753906 0.0234375 -3.636719 0 -1.710938 C 0 -0.578125 0.0703125 0.625 0.84375 1.492188 C 1.011719 1.710938 1.253906 1.832031 1.515625 1.832031 Z M 1.515625 1.832031 "/></g></g></g><g fill="#274393" fill-opacity="1"><g transform="translate(190.454615, 178.658573)"><g><path d="M 2.070312 1.660156 C 2.433594 1.636719 2.722656 1.613281 3.011719 1.542969 C 3.925781 1.324219 4.816406 1.058594 5.683594 0.722656 C 6.550781 0.359375 7.417969 0.0234375 8.308594 -0.289062 C 8.476562 -0.335938 8.574219 -0.433594 8.644531 -0.601562 C 8.667969 -0.648438 8.644531 -0.722656 8.621094 -0.820312 C 8.574219 -0.9375 8.5 -0.988281 8.378906 -0.988281 C 8.332031 -0.988281 8.261719 -0.964844 8.164062 -0.9375 C 6.9375 -0.457031 5.707031 0.0234375 4.480469 0.480469 C 3.972656 0.648438 3.46875 0.792969 2.960938 0.890625 C 2.601562 0.988281 2.238281 1.035156 1.878906 1.035156 C 1.058594 1.035156 0.648438 0.625 0.625 -0.167969 C 0.625 -0.3125 0.625 -0.457031 0.625 -0.601562 C 0.625 -0.746094 0.648438 -0.890625 0.675781 -1.011719 C 0.769531 -1.46875 0.867188 -1.925781 0.988281 -2.382812 C 1.082031 -2.816406 1.179688 -3.25 1.277344 -3.707031 C 1.347656 -4.070312 1.515625 -4.191406 1.878906 -4.261719 C 3.105469 -4.550781 4.3125 -4.863281 5.539062 -5.179688 L 5.925781 -5.25 C 6.214844 -5.371094 6.332031 -5.515625 6.285156 -5.683594 C 6.261719 -5.804688 6.164062 -5.875 5.996094 -5.875 C 5.972656 -5.875 5.925781 -5.875 5.898438 -5.875 C 5.851562 -5.875 5.804688 -5.875 5.78125 -5.851562 C 5.226562 -5.730469 4.648438 -5.585938 4.09375 -5.441406 C 3.539062 -5.296875 2.960938 -5.152344 2.410156 -5.035156 C 2.335938 -5.007812 2.265625 -4.984375 2.191406 -4.960938 C 2.121094 -4.9375 2.023438 -4.914062 1.949219 -4.914062 C 1.878906 -4.914062 1.804688 -4.9375 1.757812 -5.007812 C 1.6875 -5.082031 1.6875 -5.179688 1.734375 -5.296875 C 1.78125 -5.417969 1.832031 -5.515625 1.855469 -5.609375 C 2.265625 -6.839844 2.722656 -8.019531 3.273438 -9.199219 L 4.503906 -11.753906 C 4.671875 -12.113281 4.863281 -12.332031 5.25 -12.355469 C 5.320312 -12.355469 5.371094 -12.355469 5.417969 -12.378906 C 5.464844 -12.402344 5.515625 -12.402344 5.5625 -12.425781 L 9.296875 -13.050781 C 9.464844 -13.078125 9.632812 -13.101562 9.800781 -13.101562 C 9.96875 -13.101562 10.140625 -13.125 10.308594 -13.148438 L 10.378906 -13.148438 C 10.5 -13.148438 10.597656 -13.148438 10.714844 -13.125 C 10.8125 -13.101562 10.910156 -13.078125 11.003906 -13.078125 C 11.175781 -13.050781 11.320312 -13.171875 11.34375 -13.339844 C 11.367188 -13.511719 11.246094 -13.65625 11.078125 -13.679688 C 11.003906 -13.703125 10.910156 -13.703125 10.835938 -13.703125 C 10.742188 -13.703125 10.644531 -13.703125 10.570312 -13.703125 L 10.355469 -13.703125 C 9.851562 -13.679688 9.34375 -13.628906 8.839844 -13.558594 C 8.332031 -13.484375 7.828125 -13.390625 7.320312 -13.316406 C 6.886719 -13.246094 6.453125 -13.171875 6.042969 -13.078125 C 5.636719 -12.957031 5.203125 -12.910156 4.769531 -12.910156 C 4.695312 -12.910156 4.625 -12.882812 4.550781 -12.8125 C 4.261719 -12.644531 3.949219 -12.59375 3.636719 -12.523438 C 3.5625 -12.5 3.515625 -12.5 3.46875 -12.476562 C 3.394531 -12.449219 3.347656 -12.449219 3.273438 -12.425781 C 3.105469 -12.378906 3.035156 -12.28125 3.035156 -12.136719 C 3.035156 -11.96875 3.15625 -11.945312 3.324219 -11.945312 C 3.371094 -11.945312 3.417969 -11.945312 3.492188 -11.96875 C 3.539062 -11.96875 3.589844 -11.96875 3.660156 -11.96875 C 3.757812 -11.96875 3.828125 -11.945312 3.902344 -11.921875 C 3.902344 -11.800781 3.878906 -11.679688 3.828125 -11.609375 C 3.78125 -11.535156 3.734375 -11.4375 3.707031 -11.367188 L 2.816406 -9.535156 C 2.167969 -8.117188 1.566406 -6.742188 1.109375 -5.296875 C 1.011719 -4.914062 0.890625 -4.601562 0.433594 -4.527344 C 0.335938 -4.527344 0.242188 -4.457031 0.167969 -4.382812 C 0.121094 -4.359375 0.0976562 -4.285156 0.0976562 -4.214844 C 0.0976562 -4.117188 0.121094 -4.046875 0.167969 -4.023438 C 0.265625 -3.996094 0.335938 -3.949219 0.386719 -3.925781 C 0.648438 -3.804688 0.675781 -3.804688 0.601562 -3.539062 C 0.53125 -3.179688 0.433594 -2.816406 0.359375 -2.480469 C 0.289062 -2.121094 0.191406 -1.757812 0.121094 -1.398438 C 0 -0.84375 -0.046875 -0.289062 0.046875 0.265625 C 0.242188 1.398438 1.035156 1.660156 2.070312 1.660156 Z M 2.070312 1.660156 "/></g></g></g><g fill="#274393" fill-opacity="1"><g transform="translate(199.629835, 178.658573)"><g/></g></g><g fill="#274393" fill-opacity="1"><g transform="translate(208.780976, 178.658573)"><g><path d="M 3.273438 0 C 3.347656 0 3.417969 0 3.445312 -0.0234375 C 4.167969 -0.144531 5.128906 -0.964844 5.660156 -1.492188 C 7.226562 -3.105469 8.332031 -4.550781 9.128906 -5.898438 C 9.921875 -7.226562 10.402344 -8.429688 10.691406 -9.511719 C 11.003906 -10.570312 11.269531 -11.632812 11.246094 -12.765625 C 11.246094 -13.65625 10.910156 -14.738281 9.921875 -14.738281 C 9.800781 -14.738281 9.679688 -14.714844 9.511719 -14.691406 C 7.371094 -14.183594 5.179688 -11.222656 4.140625 -9.273438 C 3.105469 -7.417969 2.167969 -5.515625 1.324219 -3.5625 C 1.253906 -3.445312 1.203125 -3.300781 1.15625 -3.179688 C 1.109375 -3.035156 1.035156 -2.890625 0.964844 -2.769531 C 0.964844 -2.722656 0.914062 -2.695312 0.84375 -2.695312 C 0.792969 -2.695312 0.769531 -2.746094 0.769531 -2.816406 C 0.820312 -3.105469 0.867188 -3.394531 0.914062 -3.707031 C 0.9375 -3.996094 0.988281 -4.285156 1.058594 -4.601562 C 1.46875 -6.429688 2.070312 -8.1875 2.648438 -9.945312 C 2.792969 -10.402344 2.9375 -10.859375 3.105469 -11.320312 C 3.25 -11.753906 3.394531 -12.1875 3.539062 -12.644531 C 3.660156 -13.003906 3.78125 -13.390625 3.851562 -13.773438 C 3.925781 -14.089844 3.804688 -14.28125 3.636719 -14.28125 C 3.445312 -14.304688 3.324219 -14.207031 3.273438 -13.945312 C 3.082031 -13.195312 2.867188 -12.449219 2.601562 -11.726562 C 2.335938 -11.003906 2.070312 -10.285156 1.832031 -9.535156 C 1.421875 -8.1875 1.011719 -6.886719 0.648438 -5.539062 C 0.289062 -4.214844 0.0976562 -2.914062 0.0234375 -1.566406 C 0 -1.445312 0 -1.324219 0 -1.226562 C 0 -1.109375 0.0234375 -0.988281 0.046875 -0.867188 C 0.121094 -0.699219 0.242188 -0.601562 0.410156 -0.601562 C 0.457031 -0.601562 0.53125 -0.625 0.625 -0.699219 C 0.769531 -0.84375 0.890625 -1.035156 1.011719 -1.300781 C 1.324219 -2 1.636719 -2.695312 1.925781 -3.394531 C 2.867188 -5.417969 3.804688 -7.417969 4.9375 -9.367188 C 6.042969 -11.269531 7.585938 -13.390625 9.707031 -14.089844 C 9.753906 -14.113281 9.824219 -14.113281 9.898438 -14.113281 C 10.425781 -14.113281 10.621094 -13.292969 10.621094 -12.835938 C 10.621094 -11.125 10.113281 -9.609375 9.464844 -8.042969 C 9.199219 -7.441406 8.8125 -6.984375 8.261719 -6.648438 C 7.464844 -6.164062 5.949219 -4.984375 4.960938 -4.046875 C 3.949219 -3.105469 2.746094 -1.613281 2.695312 -0.675781 C 2.671875 -0.265625 2.914062 0 3.273438 0 Z M 3.5625 -0.746094 C 3.539062 -0.722656 3.492188 -0.722656 3.445312 -0.769531 C 3.371094 -0.792969 3.371094 -0.84375 3.394531 -0.914062 C 3.445312 -1.082031 3.515625 -1.253906 3.613281 -1.421875 C 4.695312 -3.058594 6.042969 -4.382812 7.683594 -5.515625 C 7.730469 -5.539062 7.777344 -5.585938 7.828125 -5.636719 C 7.875 -5.660156 7.945312 -5.683594 8.019531 -5.683594 L 8.089844 -5.683594 C 8.164062 -5.585938 8.117188 -5.492188 8.042969 -5.417969 C 7.296875 -4.285156 4.890625 -1.132812 3.5625 -0.746094 Z M 3.5625 -0.746094 "/></g></g></g><g fill="#274393" fill-opacity="1"><g transform="translate(219.304791, 178.658573)"><g><path d="M 2.070312 1.660156 C 2.433594 1.636719 2.722656 1.613281 3.011719 1.542969 C 3.925781 1.324219 4.816406 1.058594 5.683594 0.722656 C 6.550781 0.359375 7.417969 0.0234375 8.308594 -0.289062 C 8.476562 -0.335938 8.574219 -0.433594 8.644531 -0.601562 C 8.667969 -0.648438 8.644531 -0.722656 8.621094 -0.820312 C 8.574219 -0.9375 8.5 -0.988281 8.378906 -0.988281 C 8.332031 -0.988281 8.261719 -0.964844 8.164062 -0.9375 C 6.9375 -0.457031 5.707031 0.0234375 4.480469 0.480469 C 3.972656 0.648438 3.46875 0.792969 2.960938 0.890625 C 2.601562 0.988281 2.238281 1.035156 1.878906 1.035156 C 1.058594 1.035156 0.648438 0.625 0.625 -0.167969 C 0.625 -0.3125 0.625 -0.457031 0.625 -0.601562 C 0.625 -0.746094 0.648438 -0.890625 0.675781 -1.011719 C 0.769531 -1.46875 0.867188 -1.925781 0.988281 -2.382812 C 1.082031 -2.816406 1.179688 -3.25 1.277344 -3.707031 C 1.347656 -4.070312 1.515625 -4.191406 1.878906 -4.261719 C 3.105469 -4.550781 4.3125 -4.863281 5.539062 -5.179688 L 5.925781 -5.25 C 6.214844 -5.371094 6.332031 -5.515625 6.285156 -5.683594 C 6.261719 -5.804688 6.164062 -5.875 5.996094 -5.875 C 5.972656 -5.875 5.925781 -5.875 5.898438 -5.875 C 5.851562 -5.875 5.804688 -5.875 5.78125 -5.851562 C 5.226562 -5.730469 4.648438 -5.585938 4.09375 -5.441406 C 3.539062 -5.296875 2.960938 -5.152344 2.410156 -5.035156 C 2.335938 -5.007812 2.265625 -4.984375 2.191406 -4.960938 C 2.121094 -4.9375 2.023438 -4.914062 1.949219 -4.914062 C 1.878906 -4.914062 1.804688 -4.9375 1.757812 -5.007812 C 1.6875 -5.082031 1.6875 -5.179688 1.734375 -5.296875 C 1.78125 -5.417969 1.832031 -5.515625 1.855469 -5.609375 C 2.265625 -6.839844 2.722656 -8.019531 3.273438 -9.199219 L 4.503906 -11.753906 C 4.671875 -12.113281 4.863281 -12.332031 5.25 -12.355469 C 5.320312 -12.355469 5.371094 -12.355469 5.417969 -12.378906 C 5.464844 -12.402344 5.515625 -12.402344 5.5625 -12.425781 L 9.296875 -13.050781 C 9.464844 -13.078125 9.632812 -13.101562 9.800781 -13.101562 C 9.96875 -13.101562 10.140625 -13.125 10.308594 -13.148438 L 10.378906 -13.148438 C 10.5 -13.148438 10.597656 -13.148438 10.714844 -13.125 C 10.8125 -13.101562 10.910156 -13.078125 11.003906 -13.078125 C 11.175781 -13.050781 11.320312 -13.171875 11.34375 -13.339844 C 11.367188 -13.511719 11.246094 -13.65625 11.078125 -13.679688 C 11.003906 -13.703125 10.910156 -13.703125 10.835938 -13.703125 C 10.742188 -13.703125 10.644531 -13.703125 10.570312 -13.703125 L 10.355469 -13.703125 C 9.851562 -13.679688 9.34375 -13.628906 8.839844 -13.558594 C 8.332031 -13.484375 7.828125 -13.390625 7.320312 -13.316406 C 6.886719 -13.246094 6.453125 -13.171875 6.042969 -13.078125 C 5.636719 -12.957031 5.203125 -12.910156 4.769531 -12.910156 C 4.695312 -12.910156 4.625 -12.882812 4.550781 -12.8125 C 4.261719 -12.644531 3.949219 -12.59375 3.636719 -12.523438 C 3.5625 -12.5 3.515625 -12.5 3.46875 -12.476562 C 3.394531 -12.449219 3.347656 -12.449219 3.273438 -12.425781 C 3.105469 -12.378906 3.035156 -12.28125 3.035156 -12.136719 C 3.035156 -11.96875 3.15625 -11.945312 3.324219 -11.945312 C 3.371094 -11.945312 3.417969 -11.945312 3.492188 -11.96875 C 3.539062 -11.96875 3.589844 -11.96875 3.660156 -11.96875 C 3.757812 -11.96875 3.828125 -11.945312 3.902344 -11.921875 C 3.902344 -11.800781 3.878906 -11.679688 3.828125 -11.609375 C 3.78125 -11.535156 3.734375 -11.4375 3.707031 -11.367188 L 2.816406 -9.535156 C 2.167969 -8.117188 1.566406 -6.742188 1.109375 -5.296875 C 1.011719 -4.914062 0.890625 -4.601562 0.433594 -4.527344 C 0.335938 -4.527344 0.242188 -4.457031 0.167969 -4.382812 C 0.121094 -4.359375 0.0976562 -4.285156 0.0976562 -4.214844 C 0.0976562 -4.117188 0.121094 -4.046875 0.167969 -4.023438 C 0.265625 -3.996094 0.335938 -3.949219 0.386719 -3.925781 C 0.648438 -3.804688 0.675781 -3.804688 0.601562 -3.539062 C 0.53125 -3.179688 0.433594 -2.816406 0.359375 -2.480469 C 0.289062 -2.121094 0.191406 -1.757812 0.121094 -1.398438 C 0 -0.84375 -0.046875 -0.289062 0.046875 0.265625 C 0.242188 1.398438 1.035156 1.660156 2.070312 1.660156 Z M 2.070312 1.660156 "/></g></g></g><g fill="#274393" fill-opacity="1"><g transform="translate(228.480011, 178.658573)"><g/></g></g><g fill="#274393" fill-opacity="1"><g transform="translate(237.631152, 178.658573)"><g><path d="M 3.347656 0.457031 C 5.007812 0.457031 7.515625 -0.964844 8.695312 -2.023438 C 9.632812 -2.816406 10.453125 -3.734375 11.246094 -4.671875 C 11.269531 -4.71875 11.320312 -4.769531 11.34375 -4.816406 C 11.367188 -4.839844 11.414062 -4.890625 11.4375 -4.9375 C 11.511719 -5.082031 11.511719 -5.203125 11.390625 -5.296875 C 11.34375 -5.347656 11.269531 -5.371094 11.199219 -5.371094 C 11.148438 -5.371094 11.101562 -5.347656 11.03125 -5.320312 C 10.957031 -5.25 10.859375 -5.152344 10.789062 -5.082031 C 10.714844 -4.984375 10.621094 -4.890625 10.546875 -4.816406 C 8.863281 -2.816406 7.105469 -1.253906 4.625 -0.410156 C 4.167969 -0.242188 3.757812 -0.167969 3.394531 -0.167969 C 2.359375 -0.191406 1.566406 -0.578125 1.082031 -1.515625 C 0.625 -2.359375 0.53125 -3.226562 0.625 -4.117188 C 1.082031 -7.996094 2.792969 -11.921875 6.285156 -13.824219 C 6.742188 -14.039062 7.175781 -14.207031 7.609375 -14.328125 C 7.777344 -14.351562 7.898438 -14.378906 8.019531 -14.378906 C 8.621094 -14.378906 8.933594 -14.015625 8.984375 -13.292969 C 9.03125 -12.980469 9.007812 -12.644531 8.886719 -12.28125 C 8.523438 -10.933594 7.5625 -9.5625 6.71875 -8.476562 C 6.597656 -8.355469 6.574219 -8.261719 6.621094 -8.140625 C 6.648438 -8.089844 6.71875 -8.066406 6.792969 -8.066406 C 6.960938 -8.066406 7.105469 -8.1875 7.199219 -8.355469 C 8.164062 -9.585938 9.152344 -10.886719 9.511719 -12.425781 C 9.632812 -12.882812 9.632812 -13.292969 9.535156 -13.679688 C 9.34375 -14.640625 8.839844 -15.003906 7.875 -15.003906 C 5.730469 -14.761719 3.417969 -12.738281 2.3125 -10.933594 C 1.203125 -9.246094 0 -5.898438 0 -3.851562 C -0.0234375 -2.671875 0.167969 -1.734375 0.722656 -0.890625 C 1.300781 0.046875 2.289062 0.457031 3.347656 0.457031 Z M 3.347656 0.457031 "/></g></g></g><g fill="#274393" fill-opacity="1"><g transform="translate(247.914137, 178.658573)"><g><path d="M 3.613281 2.578125 C 7.464844 2.382812 10.066406 -2.695312 11.367188 -6.164062 C 11.753906 -7.226562 11.96875 -8.332031 12.066406 -9.464844 C 12.136719 -10.355469 11.945312 -11.199219 11.4375 -11.945312 C 11.03125 -12.523438 10.523438 -12.933594 9.777344 -13.050781 C 9.5625 -13.078125 9.367188 -13.101562 9.175781 -13.101562 C 7.488281 -13.101562 6.140625 -11.65625 5.441406 -10.1875 C 5.25 -9.777344 5.203125 -9.34375 5.128906 -8.886719 C 5.105469 -8.71875 5.226562 -8.574219 5.394531 -8.550781 C 5.515625 -8.550781 5.609375 -8.621094 5.683594 -8.765625 C 5.707031 -8.839844 5.753906 -8.933594 5.78125 -9.054688 C 5.925781 -10.257812 7.25 -12.042969 8.429688 -12.355469 C 8.742188 -12.425781 9.007812 -12.476562 9.222656 -12.476562 C 10.113281 -12.476562 10.742188 -12.042969 11.125 -11.199219 C 11.390625 -10.644531 11.488281 -10.089844 11.4375 -9.535156 C 11.34375 -8.308594 10.980469 -6.765625 10.355469 -5.226562 C 10.042969 -4.429688 9.65625 -3.660156 9.246094 -2.890625 C 8.40625 -1.347656 7.371094 -0.0703125 6.214844 0.890625 C 5.609375 1.347656 4.984375 1.6875 4.335938 1.855469 C 3.972656 1.925781 3.683594 1.976562 3.46875 1.976562 C 2.070312 1.976562 1.277344 0.675781 0.9375 -0.625 C 0.386719 -2.527344 0.53125 -4.382812 1.179688 -6.214844 C 2.023438 -8.644531 3.394531 -10.765625 5.226562 -12.621094 C 5.875 -13.269531 6.429688 -13.945312 7.417969 -14.039062 C 7.539062 -14.039062 7.609375 -14.183594 7.609375 -14.351562 C 7.585938 -14.523438 7.488281 -14.59375 7.371094 -14.617188 C 7.105469 -14.617188 7.03125 -14.59375 6.765625 -14.523438 C 6.285156 -14.351562 5.851562 -14.0625 5.441406 -13.679688 C 3.324219 -11.726562 1.710938 -9.441406 0.675781 -6.71875 C 0.214844 -5.539062 -0.0703125 -4.3125 0 -3.035156 C -0.0234375 -2.09375 0.0703125 -1.253906 0.335938 -0.386719 C 0.792969 1.253906 1.78125 2.578125 3.613281 2.578125 Z M 3.613281 2.578125 "/></g></g></g><g fill="#274393" fill-opacity="1"><g transform="translate(260.484911, 178.658573)"><g><path d="M 0.53125 3.683594 C 0.601562 3.683594 0.675781 3.683594 0.699219 3.660156 C 0.890625 3.613281 1.058594 3.515625 1.226562 3.347656 C 1.347656 3.226562 1.46875 3.082031 1.589844 2.960938 C 1.710938 2.839844 1.804688 2.695312 1.902344 2.578125 C 2.121094 2.265625 2.335938 1.925781 2.554688 1.589844 C 2.769531 1.253906 2.960938 0.914062 3.179688 0.578125 C 3.851562 -0.480469 4.480469 -1.566406 5.128906 -2.648438 C 6.070312 -4.191406 7.105469 -5.925781 8.476562 -7.105469 C 8.667969 -7.273438 8.863281 -7.394531 9.054688 -7.515625 C 9.078125 -7.539062 9.101562 -7.539062 9.152344 -7.539062 C 9.273438 -7.539062 9.34375 -7.488281 9.367188 -7.371094 C 9.390625 -7.25 9.390625 -7.152344 9.417969 -7.054688 C 9.417969 -6.960938 9.417969 -6.863281 9.441406 -6.742188 L 9.441406 -5.394531 C 9.367188 -4.550781 9.390625 -3.804688 9.511719 -2.960938 C 9.730469 -2.070312 9.921875 -1.226562 10.886719 -1.226562 C 10.910156 -1.226562 10.957031 -1.226562 11.003906 -1.253906 C 11.03125 -1.253906 11.078125 -1.253906 11.125 -1.253906 C 11.488281 -1.324219 11.824219 -1.46875 12.136719 -1.6875 C 12.738281 -2.09375 14.761719 -4.359375 15.027344 -5.035156 C 15.050781 -5.152344 15.027344 -5.25 14.90625 -5.296875 C 14.859375 -5.347656 14.8125 -5.371094 14.738281 -5.371094 C 14.570312 -5.371094 14.378906 -5.058594 14.304688 -4.960938 C 13.824219 -4.359375 12.304688 -2.554688 11.847656 -2.238281 C 11.582031 -2.070312 11.34375 -1.902344 10.980469 -1.878906 C 10.714844 -1.878906 10.570312 -1.902344 10.402344 -2.167969 C 10.234375 -2.480469 10.1875 -2.792969 10.113281 -3.15625 C 9.996094 -4.09375 9.96875 -4.960938 10.042969 -5.898438 C 10.066406 -6.164062 10.066406 -6.429688 10.066406 -6.695312 C 10.066406 -6.960938 10.042969 -7.226562 9.996094 -7.488281 C 9.898438 -7.972656 9.65625 -8.210938 9.273438 -8.210938 C 8.332031 -8.210938 6.765625 -6.238281 6.238281 -5.515625 C 5.5625 -4.574219 4.960938 -3.589844 4.359375 -2.601562 L 2.265625 0.914062 C 1.855469 1.566406 1.445312 2.191406 0.890625 2.746094 C 0.84375 2.792969 0.792969 2.792969 0.769531 2.769531 C 0.699219 2.769531 0.675781 2.746094 0.675781 2.671875 C 0.699219 2.554688 0.699219 2.457031 0.699219 2.359375 C 0.699219 2.238281 0.722656 2.144531 0.746094 2.046875 C 0.867188 1.636719 0.964844 1.203125 1.058594 0.792969 C 1.15625 0.359375 1.253906 -0.0703125 1.371094 -0.480469 C 2.214844 -3.492188 3.347656 -6.308594 4.671875 -9.175781 L 6.359375 -12.882812 C 6.40625 -12.980469 6.453125 -13.078125 6.503906 -13.171875 C 6.550781 -13.269531 6.574219 -13.367188 6.550781 -13.484375 C 6.527344 -13.605469 6.476562 -13.65625 6.429688 -13.679688 C 6.359375 -13.703125 6.332031 -13.726562 6.308594 -13.726562 C 6.261719 -13.726562 6.214844 -13.703125 6.140625 -13.679688 C 6.042969 -13.605469 5.972656 -13.511719 5.949219 -13.414062 C 5.898438 -13.316406 5.851562 -13.222656 5.804688 -13.148438 C 5.394531 -12.210938 4.960938 -11.320312 4.550781 -10.425781 C 2.695312 -6.476562 1.082031 -2.410156 0.144531 1.855469 C 0.046875 2.335938 -0.046875 2.792969 0.046875 3.273438 C 0.0976562 3.539062 0.265625 3.683594 0.53125 3.683594 Z M 0.53125 3.683594 "/></g></g></g><g fill="#274393" fill-opacity="1"><g transform="translate(274.307942, 178.658573)"><g><path d="M 0.359375 1.710938 C 0.746094 1.710938 0.769531 1.253906 0.84375 0.9375 C 1.011719 0.191406 1.203125 -0.53125 1.398438 -1.277344 C 1.566406 -2.023438 1.734375 -2.769531 1.902344 -3.515625 C 1.949219 -3.78125 2.09375 -3.925781 2.359375 -3.972656 C 2.527344 -3.996094 2.695312 -4.046875 2.867188 -4.070312 C 3.035156 -4.09375 3.203125 -4.117188 3.371094 -4.140625 C 3.78125 -4.214844 4.214844 -4.3125 4.625 -4.382812 C 5.035156 -4.457031 5.441406 -4.527344 5.851562 -4.601562 C 6.164062 -4.648438 6.382812 -4.769531 6.527344 -4.960938 C 6.648438 -5.128906 6.621094 -5.273438 6.503906 -5.394531 C 6.453125 -5.464844 6.40625 -5.492188 6.332031 -5.492188 C 6.261719 -5.492188 6.214844 -5.464844 6.164062 -5.417969 C 5.851562 -5.152344 5.492188 -5.152344 5.128906 -5.082031 C 4.71875 -5.007812 4.3125 -4.9375 3.902344 -4.863281 C 3.492188 -4.792969 3.058594 -4.71875 2.648438 -4.648438 C 2.601562 -4.625 2.527344 -4.625 2.410156 -4.625 C 2.3125 -4.625 2.265625 -4.671875 2.265625 -4.769531 C 2.265625 -4.9375 2.289062 -5.035156 2.3125 -5.152344 C 2.671875 -6.503906 3.035156 -7.777344 3.417969 -9.101562 C 3.683594 -9.945312 3.996094 -10.742188 4.359375 -11.535156 C 4.457031 -11.800781 4.625 -11.921875 4.863281 -11.945312 L 5.898438 -12.089844 C 7.921875 -12.355469 9.898438 -12.59375 11.921875 -12.691406 C 12.28125 -12.691406 12.59375 -12.714844 12.957031 -12.738281 C 13.269531 -12.765625 13.390625 -12.882812 13.316406 -13.050781 C 13.246094 -13.246094 13.101562 -13.246094 12.933594 -13.246094 C 12.910156 -13.269531 12.859375 -13.269531 12.789062 -13.269531 C 12.714844 -13.269531 12.667969 -13.269531 12.621094 -13.246094 C 10.140625 -13.125 7.777344 -12.859375 5.347656 -12.5 L 5.105469 -12.5 C 5.007812 -12.5 4.9375 -12.523438 4.890625 -12.546875 C 4.863281 -12.621094 4.863281 -12.691406 4.890625 -12.738281 C 4.914062 -12.789062 4.914062 -12.859375 4.9375 -12.933594 L 5.082031 -13.367188 C 5.152344 -13.535156 5.035156 -13.679688 4.863281 -13.75 C 4.695312 -13.75 4.625 -13.773438 4.527344 -13.605469 C 4.457031 -13.484375 4.40625 -13.339844 4.359375 -13.148438 C 3.972656 -12.257812 4.09375 -12.355469 3.15625 -12.160156 C 2.695312 -12.066406 2.265625 -11.96875 1.832031 -11.847656 C 1.371094 -11.726562 0.9375 -11.632812 0.480469 -11.511719 C 0.3125 -11.488281 0.214844 -11.414062 0.144531 -11.320312 C 0.121094 -11.292969 0.121094 -11.246094 0.121094 -11.175781 C 0.144531 -11.101562 0.191406 -11.078125 0.214844 -11.078125 C 0.433594 -11.078125 0.601562 -11.101562 0.769531 -11.148438 C 1.132812 -11.222656 1.515625 -11.320312 1.878906 -11.414062 C 2.238281 -11.488281 2.625 -11.582031 2.984375 -11.65625 C 3.15625 -11.679688 3.25 -11.703125 3.371094 -11.703125 C 3.492188 -11.703125 3.5625 -11.679688 3.613281 -11.65625 C 3.636719 -11.558594 3.636719 -11.464844 3.613281 -11.390625 C 3.5625 -11.292969 3.515625 -11.199219 3.492188 -11.125 C 2.695312 -9.175781 2.121094 -7.082031 1.660156 -5.035156 C 1.542969 -4.601562 1.277344 -4.359375 0.867188 -4.3125 C 0.601562 -4.285156 0.386719 -4.261719 0.167969 -4.191406 C 0.0234375 -4.140625 -0.0234375 -4.023438 0 -3.851562 C 0.0234375 -3.734375 0.0976562 -3.660156 0.214844 -3.660156 C 0.335938 -3.660156 0.433594 -3.660156 0.554688 -3.660156 C 0.648438 -3.660156 0.746094 -3.660156 0.84375 -3.683594 C 1.203125 -3.683594 1.253906 -3.613281 1.179688 -3.25 C 1.15625 -3.179688 1.15625 -3.128906 1.15625 -3.082031 C 1.132812 -3.011719 1.109375 -2.9375 1.082031 -2.867188 L 0.214844 0.964844 C 0.191406 1.035156 0.191406 1.109375 0.167969 1.179688 C 0.144531 1.226562 0.144531 1.277344 0.121094 1.347656 C 0.0976562 1.566406 0.167969 1.6875 0.359375 1.710938 Z M 0.359375 1.710938 "/></g></g></g><g fill="#274393" fill-opacity="1"><g transform="translate(282.327229, 178.658573)"><g><path d="M 3.613281 2.578125 C 7.464844 2.382812 10.066406 -2.695312 11.367188 -6.164062 C 11.753906 -7.226562 11.96875 -8.332031 12.066406 -9.464844 C 12.136719 -10.355469 11.945312 -11.199219 11.4375 -11.945312 C 11.03125 -12.523438 10.523438 -12.933594 9.777344 -13.050781 C 9.5625 -13.078125 9.367188 -13.101562 9.175781 -13.101562 C 7.488281 -13.101562 6.140625 -11.65625 5.441406 -10.1875 C 5.25 -9.777344 5.203125 -9.34375 5.128906 -8.886719 C 5.105469 -8.71875 5.226562 -8.574219 5.394531 -8.550781 C 5.515625 -8.550781 5.609375 -8.621094 5.683594 -8.765625 C 5.707031 -8.839844 5.753906 -8.933594 5.78125 -9.054688 C 5.925781 -10.257812 7.25 -12.042969 8.429688 -12.355469 C 8.742188 -12.425781 9.007812 -12.476562 9.222656 -12.476562 C 10.113281 -12.476562 10.742188 -12.042969 11.125 -11.199219 C 11.390625 -10.644531 11.488281 -10.089844 11.4375 -9.535156 C 11.34375 -8.308594 10.980469 -6.765625 10.355469 -5.226562 C 10.042969 -4.429688 9.65625 -3.660156 9.246094 -2.890625 C 8.40625 -1.347656 7.371094 -0.0703125 6.214844 0.890625 C 5.609375 1.347656 4.984375 1.6875 4.335938 1.855469 C 3.972656 1.925781 3.683594 1.976562 3.46875 1.976562 C 2.070312 1.976562 1.277344 0.675781 0.9375 -0.625 C 0.386719 -2.527344 0.53125 -4.382812 1.179688 -6.214844 C 2.023438 -8.644531 3.394531 -10.765625 5.226562 -12.621094 C 5.875 -13.269531 6.429688 -13.945312 7.417969 -14.039062 C 7.539062 -14.039062 7.609375 -14.183594 7.609375 -14.351562 C 7.585938 -14.523438 7.488281 -14.59375 7.371094 -14.617188 C 7.105469 -14.617188 7.03125 -14.59375 6.765625 -14.523438 C 6.285156 -14.351562 5.851562 -14.0625 5.441406 -13.679688 C 3.324219 -11.726562 1.710938 -9.441406 0.675781 -6.71875 C 0.214844 -5.539062 -0.0703125 -4.3125 0 -3.035156 C -0.0234375 -2.09375 0.0703125 -1.253906 0.335938 -0.386719 C 0.792969 1.253906 1.78125 2.578125 3.613281 2.578125 Z M 3.613281 2.578125 "/></g></g></g><g fill="#274393" fill-opacity="1"><g transform="translate(294.898002, 178.658573)"><g><path d="M 0.289062 2.625 C 0.457031 2.625 0.601562 2.554688 0.675781 2.433594 C 0.867188 2.121094 0.914062 1.804688 0.988281 1.445312 L 1.78125 -2.167969 C 1.804688 -2.289062 1.855469 -2.382812 1.878906 -2.503906 C 1.902344 -2.625 1.949219 -2.722656 2.070312 -2.816406 C 2.554688 -2.746094 3.011719 -2.527344 3.46875 -2.335938 C 3.734375 -2.238281 3.972656 -2.144531 4.238281 -2.046875 C 4.480469 -1.925781 4.746094 -1.832031 5.007812 -1.734375 C 5.464844 -1.566406 5.949219 -1.492188 6.429688 -1.492188 C 7.464844 -1.492188 8.71875 -1.902344 9.5625 -2.554688 C 10.402344 -3.203125 11.222656 -3.828125 12.066406 -4.480469 C 12.234375 -4.574219 12.332031 -4.695312 12.449219 -4.863281 C 12.5 -4.9375 12.523438 -5.035156 12.523438 -5.152344 C 12.546875 -5.273438 12.402344 -5.417969 12.28125 -5.417969 C 12.257812 -5.417969 12.257812 -5.417969 12.257812 -5.417969 C 12.234375 -5.394531 12.234375 -5.394531 12.210938 -5.394531 C 12.160156 -5.371094 12.089844 -5.347656 11.992188 -5.273438 C 11.582031 -4.914062 11.175781 -4.550781 10.742188 -4.238281 C 10.285156 -3.902344 9.851562 -3.5625 9.417969 -3.226562 C 8.574219 -2.578125 7.464844 -2.121094 6.429688 -2.121094 C 6.117188 -2.121094 5.804688 -2.144531 5.492188 -2.238281 C 4.792969 -2.433594 4.117188 -2.746094 3.445312 -3.058594 C 3.394531 -3.082031 3.371094 -3.105469 3.371094 -3.179688 C 3.371094 -3.226562 3.394531 -3.273438 3.445312 -3.300781 C 3.515625 -3.324219 3.589844 -3.371094 3.660156 -3.417969 C 3.734375 -3.445312 3.78125 -3.492188 3.851562 -3.515625 C 6.453125 -4.9375 8.5 -6.816406 9.851562 -9.488281 C 10.066406 -9.945312 10.257812 -10.402344 10.378906 -10.886719 C 10.5 -11.292969 10.523438 -11.703125 10.453125 -12.136719 C 10.378906 -12.644531 10.066406 -12.933594 9.5625 -12.980469 C 6.9375 -12.980469 4.457031 -9.679688 3.25 -7.394531 C 3.179688 -7.609375 3.179688 -7.800781 3.25 -7.996094 C 3.324219 -8.164062 3.371094 -8.355469 3.417969 -8.550781 C 3.902344 -10.5 4.429688 -12.476562 4.9375 -14.425781 C 5.007812 -14.617188 5.082031 -14.835938 5.007812 -15.050781 C 4.984375 -15.171875 4.914062 -15.246094 4.816406 -15.269531 C 4.792969 -15.269531 4.792969 -15.269531 4.792969 -15.292969 C 4.769531 -15.292969 4.769531 -15.292969 4.746094 -15.292969 C 4.671875 -15.292969 4.625 -15.246094 4.550781 -15.148438 C 4.457031 -15.003906 4.382812 -14.859375 4.359375 -14.691406 C 4.3125 -14.523438 4.261719 -14.351562 4.214844 -14.183594 C 3.660156 -11.898438 3.105469 -9.65625 2.457031 -7.417969 C 2.144531 -6.332031 1.878906 -5.25 1.613281 -4.167969 C 1.347656 -3.082031 1.011719 -2.023438 0.601562 -0.988281 C 0.242188 -0.121094 0.0976562 0.769531 0.0234375 1.710938 C 0 1.925781 -0.046875 2.144531 0.0234375 2.335938 C 0.0703125 2.480469 0.167969 2.578125 0.289062 2.625 Z M 2.480469 -3.683594 C 2.382812 -3.683594 2.265625 -3.78125 2.335938 -3.902344 C 3.445312 -6.71875 5.492188 -10.835938 8.332031 -12.089844 C 8.621094 -12.210938 8.910156 -12.355469 9.222656 -12.355469 C 9.679688 -12.355469 9.851562 -12.234375 9.875 -11.777344 L 9.875 -11.632812 C 9.800781 -10.285156 8.453125 -8.1875 7.5625 -7.226562 C 6.261719 -5.804688 4.429688 -4.191406 2.554688 -3.683594 Z M 2.480469 -3.683594 "/></g></g></g><g fill="#274393" fill-opacity="1"><g transform="translate(306.216517, 178.658573)"><g><path d="M 2.410156 2 C 2.480469 2 2.554688 1.976562 2.625 1.902344 C 2.792969 1.78125 2.792969 1.589844 2.816406 1.398438 C 3.492188 -2.960938 4.285156 -7.199219 5.320312 -11.511719 C 5.394531 -11.871094 5.609375 -12.066406 5.925781 -12.089844 C 6.429688 -12.160156 6.960938 -12.210938 7.464844 -12.28125 C 7.972656 -12.355469 8.476562 -12.402344 8.984375 -12.449219 C 9.5625 -12.523438 10.140625 -12.59375 10.714844 -12.644531 C 11.292969 -12.691406 11.871094 -12.738281 12.425781 -12.789062 L 12.738281 -12.859375 C 12.882812 -12.933594 12.933594 -13.027344 12.910156 -13.171875 C 12.882812 -13.292969 12.8125 -13.367188 12.691406 -13.390625 L 12.136719 -13.390625 C 11.320312 -13.316406 10.5 -13.222656 9.679688 -13.148438 C 8.839844 -13.050781 8.019531 -12.957031 7.199219 -12.882812 C 6.984375 -12.859375 6.792969 -12.835938 6.597656 -12.8125 C 6.40625 -12.789062 6.238281 -12.738281 6.09375 -12.714844 L 5.996094 -12.714844 C 5.683594 -12.714844 5.609375 -12.789062 5.683594 -13.050781 L 5.78125 -13.582031 C 5.804688 -13.773438 5.753906 -13.917969 5.609375 -13.992188 C 5.441406 -13.992188 5.320312 -13.894531 5.273438 -13.726562 C 5.203125 -13.460938 5.152344 -13.222656 5.082031 -12.957031 C 5.007812 -12.59375 4.816406 -12.5 4.503906 -12.425781 C 3.757812 -12.304688 3.011719 -12.136719 2.265625 -11.96875 L -1.421875 -11.175781 C -1.542969 -11.148438 -1.660156 -11.125 -1.78125 -11.101562 C -1.902344 -11.078125 -2 -11.003906 -2.09375 -10.933594 C -2.121094 -10.910156 -2.144531 -10.859375 -2.144531 -10.835938 C -2.144531 -10.789062 -2.144531 -10.742188 -2.167969 -10.714844 C -2.167969 -10.546875 -1.949219 -10.523438 -1.832031 -10.523438 C -1.757812 -10.523438 -1.6875 -10.523438 -1.613281 -10.546875 C -1.542969 -10.570312 -1.46875 -10.570312 -1.398438 -10.597656 C -0.699219 -10.742188 -0.0234375 -10.886719 0.648438 -11.054688 C 1.324219 -11.199219 2 -11.34375 2.695312 -11.464844 C 3.273438 -11.632812 3.878906 -11.726562 4.457031 -11.824219 L 4.527344 -11.824219 C 4.695312 -11.824219 4.769531 -11.726562 4.71875 -11.558594 C 4.695312 -11.367188 4.648438 -11.222656 4.625 -11.101562 C 3.878906 -8.117188 3.273438 -5.152344 2.769531 -2.144531 L 2.191406 1.347656 C 2.167969 1.515625 2.121094 1.660156 2.191406 1.832031 C 2.214844 1.949219 2.289062 2 2.410156 2 Z M 2.410156 2 "/></g></g></g><g fill="#274393" fill-opacity="1"><g transform="translate(168.263095, 202.399981)"><g><path d="M 2.320312 -5.375 L 2.320312 -9.804688 L 4.847656 -9.804688 C 5.503906 -9.804688 6.03125 -9.597656 6.429688 -9.183594 C 6.816406 -8.765625 7.023438 -8.253906 7.023438 -7.613281 C 7.023438 -6.976562 6.816406 -6.445312 6.398438 -6.015625 C 5.984375 -5.582031 5.472656 -5.375 4.847656 -5.375 Z M 8.144531 -7.597656 C 8.144531 -8.527344 7.789062 -9.328125 7.117188 -9.949219 C 6.464844 -10.558594 5.648438 -10.878906 4.6875 -10.878906 L 1.199219 -10.878906 L 1.199219 0 L 2.320312 0 L 2.320312 -4.304688 L 3.617188 -4.304688 L 6.816406 0 L 8.320312 0 L 4.960938 -4.304688 C 5.808594 -4.351562 6.527344 -4.65625 7.117188 -5.214844 C 7.789062 -5.839844 8.144531 -6.640625 8.144531 -7.597656 Z M 8.144531 -7.597656 "/></g></g></g><g fill="#274393" fill-opacity="1"><g transform="translate(178.245008, 202.399981)"><g><path d="M 7.664062 0 L 7.664062 -1.039062 L 2.320312 -1.039062 L 2.320312 -4.910156 L 7.503906 -4.910156 L 7.503906 -5.96875 L 2.320312 -5.96875 L 2.320312 -9.839844 L 7.664062 -9.839844 L 7.664062 -10.878906 L 1.199219 -10.878906 L 1.199219 0 Z M 7.664062 0 "/></g></g></g><g fill="#274393" fill-opacity="1"><g transform="translate(188.386875, 202.399981)"><g><path d="M 2.320312 -5.390625 L 2.320312 -9.804688 L 4.847656 -9.804688 C 5.503906 -9.804688 6.03125 -9.597656 6.429688 -9.199219 C 6.816406 -8.78125 7.023438 -8.269531 7.023438 -7.628906 C 7.023438 -6.976562 6.816406 -6.445312 6.398438 -6.015625 C 5.984375 -5.597656 5.472656 -5.390625 4.847656 -5.390625 Z M 8.144531 -7.597656 C 8.144531 -8.558594 7.789062 -9.34375 7.117188 -9.964844 C 6.445312 -10.574219 5.648438 -10.878906 4.6875 -10.878906 L 1.199219 -10.878906 L 1.199219 0 L 2.320312 0 L 2.320312 -4.304688 L 4.6875 -4.304688 C 5.648438 -4.304688 6.464844 -4.605469 7.117188 -5.214844 C 7.789062 -5.855469 8.144531 -6.640625 8.144531 -7.597656 Z M 8.144531 -7.597656 "/></g></g></g><g fill="#274393" fill-opacity="1"><g transform="translate(198.128839, 202.399981)"><g><path d="M 10.78125 -5.472656 C 10.78125 -4.222656 10.335938 -3.167969 9.46875 -2.304688 C 8.589844 -1.421875 7.535156 -0.992188 6.304688 -0.992188 C 5.070312 -0.992188 4.015625 -1.421875 3.152344 -2.304688 C 2.273438 -3.167969 1.839844 -4.222656 1.839844 -5.472656 C 1.839844 -6.6875 2.273438 -7.742188 3.152344 -8.621094 C 4.015625 -9.488281 5.070312 -9.933594 6.304688 -9.933594 C 7.535156 -9.933594 8.589844 -9.488281 9.46875 -8.621094 C 10.335938 -7.742188 10.78125 -6.6875 10.78125 -5.472656 Z M 11.902344 -5.472656 C 11.902344 -6.238281 11.742188 -6.957031 11.453125 -7.648438 C 11.167969 -8.320312 10.765625 -8.910156 10.253906 -9.421875 C 9.742188 -9.917969 9.152344 -10.320312 8.480469 -10.605469 C 7.789062 -10.894531 7.070312 -11.054688 6.304688 -11.054688 C 5.535156 -11.054688 4.800781 -10.894531 4.128906 -10.605469 C 3.457031 -10.320312 2.863281 -9.917969 2.351562 -9.421875 C 1.839844 -8.910156 1.441406 -8.320312 1.152344 -7.648438 C 0.863281 -6.957031 0.71875 -6.238281 0.71875 -5.472656 C 0.71875 -4.703125 0.863281 -3.96875 1.152344 -3.296875 C 1.441406 -2.609375 1.839844 -2.015625 2.351562 -1.503906 C 2.863281 -0.992188 3.457031 -0.59375 4.128906 -0.304688 C 4.800781 -0.015625 5.535156 0.128906 6.304688 0.128906 C 7.070312 0.128906 7.789062 -0.015625 8.480469 -0.304688 C 9.152344 -0.59375 9.742188 -0.992188 10.253906 -1.503906 C 10.765625 -2.015625 11.167969 -2.609375 11.453125 -3.296875 C 11.742188 -3.96875 11.902344 -4.703125 11.902344 -5.472656 Z M 11.902344 -5.472656 "/></g></g></g><g fill="#274393" fill-opacity="1"><g transform="translate(212.029802, 202.399981)"><g><path d="M 4.207031 -5.121094 C 5.613281 -4.785156 6.574219 -4.414062 7.085938 -4 C 7.4375 -3.710938 7.613281 -3.34375 7.613281 -2.894531 C 7.613281 -2.449219 7.519531 -2.078125 7.328125 -1.824219 C 6.847656 -1.152344 5.984375 -0.816406 4.765625 -0.816406 C 3.070312 -0.816406 2.113281 -1.390625 1.902344 -2.542969 L 0.59375 -2.542969 C 0.976562 -0.703125 2.367188 0.207031 4.765625 0.207031 C 5.839844 0.207031 6.734375 -0.015625 7.453125 -0.496094 C 8.320312 -1.054688 8.765625 -1.886719 8.765625 -2.976562 C 8.765625 -3.871094 8.414062 -4.558594 7.710938 -5.039062 C 7.214844 -5.390625 6.414062 -5.710938 5.3125 -6 C 4.191406 -6.285156 3.472656 -6.527344 3.136719 -6.703125 C 2.398438 -7.070312 2.03125 -7.582031 2.046875 -8.253906 C 2.046875 -8.605469 2.113281 -8.910156 2.273438 -9.132812 C 2.6875 -9.757812 3.421875 -10.078125 4.480469 -10.078125 C 5.96875 -10.078125 6.816406 -9.597656 7.039062 -8.671875 L 8.253906 -8.671875 C 7.855469 -10.238281 6.589844 -11.039062 4.480469 -11.039062 C 3.519531 -11.039062 2.671875 -10.78125 1.96875 -10.269531 C 1.246094 -9.757812 0.878906 -9.007812 0.878906 -7.984375 C 0.878906 -6.589844 2 -5.632812 4.207031 -5.121094 Z M 4.207031 -5.121094 "/></g></g></g><g fill="#274393" fill-opacity="1"><g transform="translate(222.491589, 202.399981)"><g><path d="M 7.664062 0 L 7.664062 -1.039062 L 2.320312 -1.039062 L 2.320312 -4.910156 L 7.503906 -4.910156 L 7.503906 -5.96875 L 2.320312 -5.96875 L 2.320312 -9.839844 L 7.664062 -9.839844 L 7.664062 -10.878906 L 1.199219 -10.878906 L 1.199219 0 Z M 7.664062 0 "/></g></g></g><g fill="#274393" fill-opacity="1"><g transform="translate(232.633457, 202.399981)"><g/></g></g><g fill="#274393" fill-opacity="1"><g transform="translate(238.232422, 202.399981)"><g><path d="M 2.320312 0 L 2.320312 -10.878906 L 1.199219 -10.878906 L 1.199219 0 Z M 2.320312 0 "/></g></g></g><g fill="#274393" fill-opacity="1"><g transform="translate(243.03157, 202.399981)"><g><path d="M 11.183594 -3.328125 L 9.949219 -3.328125 C 9.566406 -2.625 9.039062 -2.046875 8.367188 -1.632812 C 7.695312 -1.199219 6.941406 -0.992188 6.144531 -0.992188 C 4.941406 -0.992188 3.917969 -1.421875 3.070312 -2.320312 C 2.238281 -3.167969 1.839844 -4.207031 1.839844 -5.421875 C 1.839844 -6.640625 2.238281 -7.679688 3.070312 -8.542969 C 3.457031 -8.941406 3.917969 -9.261719 4.449219 -9.503906 C 4.960938 -9.742188 5.472656 -9.871094 5.984375 -9.871094 C 6.480469 -9.871094 6.910156 -9.804688 7.292969 -9.695312 C 8.460938 -9.34375 9.34375 -8.636719 9.933594 -7.566406 L 11.167969 -7.566406 C 10.75 -8.589844 10.09375 -9.421875 9.183594 -10.0625 C 8.253906 -10.703125 7.246094 -11.023438 6.144531 -11.023438 C 4.625 -11.023438 3.34375 -10.460938 2.289062 -9.359375 C 1.792969 -8.847656 1.40625 -8.238281 1.136719 -7.566406 C 0.847656 -6.894531 0.71875 -6.175781 0.71875 -5.421875 C 0.71875 -3.886719 1.230469 -2.589844 2.289062 -1.503906 C 3.34375 -0.382812 4.625 0.160156 6.144531 0.160156 C 7.246094 0.160156 8.253906 -0.160156 9.199219 -0.800781 C 10.109375 -1.441406 10.765625 -2.273438 11.183594 -3.328125 Z M 11.183594 -3.328125 "/></g></g></g><g fill="#274393" fill-opacity="1"><g transform="translate(255.972766, 202.399981)"><g><path d="M 2.320312 0 L 2.320312 -10.878906 L 1.199219 -10.878906 L 1.199219 0 Z M 2.320312 0 "/></g></g></g></svg>