<svg xmlns="http://www.w3.org/2000/svg" xmlns:xlink="http://www.w3.org/1999/xlink" width="500" zoomAndPan="magnify" viewBox="0 0 375 374.999991" height="500" preserveAspectRatio="xMidYMid meet" version="1.0"><defs><clipPath id="id1"><path d="M 144.675781 128.714844 L 229.796875 128.714844 L 229.796875 246.914062 L 144.675781 246.914062 Z M 144.675781 128.714844 " clip-rule="nonzero"/></clipPath><clipPath id="id2"><path d="M 144.675781 128.414062 L 230 128.414062 L 230 246.914062 L 144.675781 246.914062 Z M 144.675781 128.414062 " clip-rule="nonzero"/></clipPath></defs><g clip-path="url(#id1)"><path fill="#f8edfc" d="M 147.863281 174.511719 C 146.785156 170.179688 149.015625 165.40625 147.570312 160.566406 C 149.882812 162.09375 151.773438 164.066406 153.25 166.480469 C 153.789062 165.601562 154.394531 164.722656 155.070312 163.835938 C 161.324219 170.558594 164.589844 176.945312 164.859375 182.992188 C 170.722656 187.878906 174.164062 193.230469 175.1875 199.058594 C 175.382812 198.261719 175.59375 197.445312 175.808594 196.597656 C 176.457031 194.007812 176.996094 191.792969 177.429688 189.964844 C 180.066406 192.675781 182.152344 195.503906 183.683594 198.441406 C 183.046875 193.246094 184.199219 189.109375 186.941406 185.636719 C 185.636719 181.171875 178.996094 182.398438 176.144531 175.40625 C 174.828125 172.179688 174.429688 167.84375 174.949219 162.394531 C 175.632812 163.457031 176.570312 164.371094 177.761719 165.128906 C 179.71875 166.375 181.746094 166.847656 183.707031 167.457031 C 184.097656 164.949219 185.085938 162.523438 186.664062 160.179688 C 183.925781 158.347656 179.957031 159.039062 177.332031 154.371094 C 175.21875 150.625 175.984375 143.4375 174.753906 138.464844 C 176.941406 138.96875 178.917969 139.714844 180.6875 140.703125 C 181.363281 137.023438 183.230469 133.074219 186.28125 128.851562 C 190.421875 136.144531 191.398438 143.328125 189.210938 150.402344 C 189.875 151.933594 190.417969 153.601562 190.84375 155.40625 C 192.113281 154.234375 193.550781 153.085938 195.152344 151.957031 C 198.425781 162.839844 197.402344 171.011719 192.082031 176.480469 C 192.25 177.902344 192.164062 179.457031 191.820312 181.144531 C 194.300781 179.398438 197.308594 177.820312 200.792969 176.324219 C 201.140625 181.796875 200.398438 186.367188 198.578125 190.039062 C 196.410156 194.398438 190.445312 197.792969 188.667969 201.472656 C 190.003906 200.265625 191.664062 199.34375 193.648438 198.714844 C 195.199219 198.21875 196.941406 198.046875 198.683594 197.902344 C 199.867188 193.71875 202.0625 188.765625 205.269531 183.042969 C 207.328125 184.925781 208.964844 186.910156 210.179688 188.992188 C 211.179688 187.585938 212.472656 186.3125 214.054688 185.183594 C 212.898438 182.933594 209.910156 181.789062 209.582031 176.871094 C 209.234375 171.699219 212.21875 165.945312 212.292969 159.449219 C 213.675781 160.796875 214.90625 162.148438 215.980469 163.507812 C 217.355469 159.070312 220.144531 154.230469 224.34375 148.988281 C 225.253906 151.574219 225.679688 154.636719 225.621094 158.175781 C 226.902344 157.515625 228.28125 156.957031 229.761719 156.5 C 229.890625 166.785156 227.148438 173.925781 221.542969 177.921875 C 221.53125 179.164062 221.40625 180.410156 221.15625 181.660156 C 223.351562 180.898438 225.8125 180.265625 228.542969 179.757812 C 226.609375 191.839844 221.316406 198.941406 212.671875 201.070312 C 212.558594 202.03125 212.382812 203.011719 212.140625 204.003906 C 214.132812 203.632812 216.285156 203.332031 218.59375 203.105469 C 215.996094 204.78125 212.25 214.753906 209.109375 218.683594 C 206.25 222.253906 202.796875 225.0625 198.742188 227.105469 C 196.542969 228.214844 195.800781 227.96875 194.675781 230.4375 C 193.285156 233.480469 192.484375 238.976562 192.269531 246.925781 L 190.617188 246.925781 C 190.703125 239.875 191.636719 235.503906 193.222656 228.40625 C 194.078125 224.574219 192.710938 222.574219 193.023438 218.683594 C 193.3125 215.085938 194.921875 212.089844 197.847656 209.695312 C 198.078125 209.507812 198.316406 209.324219 198.5625 209.140625 C 198.464844 208.933594 198.378906 208.71875 198.296875 208.5 C 193.992188 211.996094 189.171875 213.890625 186.011719 218.304688 C 185.507812 220.367188 184.941406 222.042969 184.996094 224.523438 C 185.097656 229.074219 186.296875 236.539062 188.59375 246.925781 L 186.757812 246.925781 C 184.003906 233.324219 183.972656 227.722656 182.789062 223.988281 C 182.617188 223.449219 182.449219 222.992188 182.289062 222.617188 C 181.832031 221.578125 180.828125 220.507812 179.691406 219.277344 C 179.957031 223.566406 179.652344 228.371094 179.890625 232.039062 C 180.199219 236.792969 180.777344 241.753906 181.625 246.925781 L 179.351562 246.925781 L 178.175781 234.511719 C 177.664062 230.605469 176.566406 227.726562 174.886719 225.882812 C 167.558594 217.851562 160.925781 222.855469 153.277344 203.933594 C 155.726562 204.824219 158.132812 205.59375 160.5 206.238281 C 160.707031 206.296875 160.917969 206.351562 161.136719 206.402344 C 159.296875 203.417969 159.0625 200.035156 159.4375 196.503906 C 155.59375 195.113281 150.257812 196.496094 147.179688 190.582031 C 145.285156 186.945312 144.578125 181.3125 145.054688 173.6875 C 146.019531 173.941406 146.957031 174.214844 147.863281 174.511719 " fill-opacity="1" fill-rule="evenodd"/></g><g clip-path="url(#id2)"><path fill="#274393" d="M 212.941406 200.753906 C 216.847656 199.726562 220.046875 197.644531 222.539062 194.519531 C 225.328125 191.015625 227.234375 186.195312 228.257812 180.054688 C 227.625 180.175781 227.003906 180.304688 226.402344 180.4375 C 219.566406 182.792969 214.632812 186.421875 211.597656 191.316406 C 211.875 191.980469 212.113281 192.65625 212.308594 193.339844 C 212.992188 195.703125 213.199219 198.175781 212.941406 200.753906 Z M 220.949219 181.480469 C 221.574219 178.253906 221.378906 175.058594 220.363281 171.898438 C 219.070312 167.882812 216.457031 163.917969 212.515625 160 C 212.753906 161.589844 212.921875 164.152344 212.71875 166.722656 C 212.429688 170.351562 211.671875 173.769531 212.054688 177.429688 C 212.300781 179.765625 213.925781 181.863281 214.820312 184.378906 C 216.558594 183.265625 218.601562 182.300781 220.949219 181.480469 Z M 221.777344 177.457031 C 224.15625 175.65625 225.984375 173.257812 227.269531 170.253906 C 228.8125 166.644531 229.5625 162.167969 229.527344 156.820312 C 224.828125 159.546875 220.765625 164.660156 219.113281 167.804688 C 219.820312 169.113281 220.386719 170.429688 220.8125 171.753906 C 221.417969 173.644531 221.742188 175.542969 221.777344 177.457031 Z M 225.464844 157.988281 C 225.480469 156.800781 225.441406 155.664062 225.34375 154.585938 C 225.167969 152.652344 224.816406 150.894531 224.285156 149.3125 C 222.460938 151.609375 218.699219 161.609375 217.726562 164.863281 C 218.730469 163.367188 219.898438 162.035156 221.226562 160.871094 C 222.492188 159.757812 223.90625 158.796875 225.464844 157.988281 Z M 186.679688 206.515625 C 187.234375 209.707031 187.222656 213.019531 186.640625 216.441406 C 186.589844 216.742188 186.535156 217.027344 186.480469 217.304688 C 188.464844 214.886719 190.96875 213.25 193.554688 211.554688 C 196.183594 209.835938 198.898438 208.058594 201.226562 205.347656 C 202.421875 203.953125 203.457031 202.464844 204.328125 200.882812 C 205.085938 199.503906 205.726562 198.050781 206.238281 196.527344 C 206.070312 196.628906 205.894531 196.726562 205.714844 196.8125 C 199.898438 201.535156 191.296875 198.617188 186.679688 206.515625 Z M 184.636719 199.871094 C 185.011719 200.703125 185.339844 201.542969 185.628906 202.390625 C 185.835938 202.996094 186.019531 203.609375 186.183594 204.230469 C 186.773438 203.171875 187.5 202.238281 188.367188 201.429688 C 188.402344 201.394531 188.4375 201.359375 188.472656 201.328125 C 189.359375 199.527344 191.191406 197.820312 193.101562 196.039062 C 195.136719 194.136719 197.265625 192.152344 198.367188 189.933594 C 199.265625 188.121094 199.898438 186.082031 200.265625 183.820312 C 200.617188 181.644531 200.722656 179.265625 200.578125 176.675781 C 200.078125 176.894531 199.582031 177.113281 199.101562 177.335938 C 189.851562 183.121094 185.03125 190.632812 184.636719 199.871094 Z M 187.460938 184.644531 C 188.617188 183.347656 190.003906 182.136719 191.609375 181.003906 C 191.839844 179.824219 191.945312 178.714844 191.925781 177.671875 C 191.882812 175.539062 191.316406 173.6875 190.21875 172.117188 C 188.035156 168.980469 185.402344 168.203125 182.691406 167.398438 C 181.015625 166.898438 179.308594 166.394531 177.636719 165.332031 C 177.027344 164.941406 176.480469 164.515625 176 164.046875 C 175.679688 163.738281 175.390625 163.40625 175.125 163.058594 C 175.097656 163.386719 175.074219 163.710938 175.054688 164.027344 C 175.421875 168.484375 176.382812 172.03125 177.933594 174.660156 C 180.71875 179.378906 184.925781 179.085938 186.960938 183.308594 C 187.167969 183.734375 187.332031 184.179688 187.460938 184.644531 Z M 176.75 143.183594 C 177.496094 146.273438 177.761719 149.6875 179.140625 152.445312 C 181.246094 156.65625 184.429688 156.007812 187.34375 158.839844 C 188.265625 157.644531 189.34375 156.472656 190.582031 155.324219 C 189.574219 151.125 187.914062 147.683594 185.605469 145.003906 C 182.957031 141.933594 179.445312 139.859375 175.074219 138.785156 C 175.660156 139.628906 176.363281 141.585938 176.75 143.183594 Z M 186.855469 168.449219 C 188.1875 169.164062 189.453125 170.1875 190.605469 171.84375 C 191.453125 173.058594 192 174.433594 192.246094 175.960938 C 194.417969 173.597656 195.8125 170.742188 196.425781 167.398438 C 197.199219 163.167969 196.730469 158.148438 195.019531 152.34375 C 191.203125 155.722656 187.558594 164.109375 186.855469 168.449219 Z M 183.25 142.113281 C 184.234375 142.878906 185.140625 143.738281 185.960938 144.691406 C 187.21875 146.152344 188.289062 147.828125 189.167969 149.722656 C 190.042969 146.628906 190.308594 143.511719 189.964844 140.378906 C 189.5625 136.710938 188.324219 133.019531 186.253906 129.292969 C 184.621094 132.121094 183.277344 139.15625 183.25 142.113281 Z M 200.820312 197.480469 C 203.019531 197.261719 205.074219 196.894531 206.53125 195.746094 L 207.128906 195.28125 L 206.902344 196.003906 C 206.347656 197.800781 205.625 199.503906 204.738281 201.113281 C 203.851562 202.722656 202.800781 204.238281 201.582031 205.65625 C 201.253906 206.039062 200.921875 206.402344 200.578125 206.75 C 200.632812 207 200.691406 207.238281 200.757812 207.472656 C 202.433594 206.5625 204.257812 205.832031 206.113281 205.242188 C 207.878906 204.679688 209.824219 204.199219 211.945312 203.800781 C 212.816406 200.140625 212.785156 196.699219 211.855469 193.472656 C 210.8125 189.859375 208.636719 186.507812 205.328125 183.421875 C 205.089844 183.855469 204.851562 184.285156 204.621094 184.707031 C 202.765625 189.574219 201.5 193.828125 200.820312 197.480469 Z M 174.945312 199.050781 C 174.734375 197.855469 174.417969 196.679688 174 195.527344 C 172.113281 190.328125 168.136719 185.527344 162.070312 181.128906 C 162.070312 181.253906 162.066406 181.378906 162.058594 181.503906 C 164.070312 189.882812 159.550781 198.667969 164.5625 206.78125 C 165.1875 206.871094 165.820312 206.953125 166.457031 207.039062 C 169.066406 207.382812 171.707031 207.730469 173.902344 208.511719 C 173.511719 205.339844 174.117188 202.386719 174.945312 199.050781 Z M 161.023438 186.335938 C 159.582031 182.847656 157.601562 180.339844 155.1875 178.46875 C 152.414062 176.324219 149.058594 175.007812 145.273438 173.992188 C 145.246094 174.433594 145.226562 174.867188 145.207031 175.292969 C 145.75 180.351562 146.773438 184.320312 148.277344 187.207031 C 151.496094 193.382812 156.300781 192.375 159.421875 194.773438 C 159.664062 193.175781 159.996094 191.550781 160.328125 189.925781 C 160.570312 188.726562 160.816406 187.527344 161.023438 186.335938 Z M 164.589844 182.46875 C 164.421875 180.210938 163.835938 177.90625 162.832031 175.550781 C 161.265625 171.882812 158.683594 168.101562 155.089844 164.203125 C 153.308594 167.722656 153.035156 174.152344 153.050781 176.488281 C 153.898438 176.96875 154.707031 177.5 155.476562 178.09375 C 157.796875 179.890625 159.722656 182.253906 161.167969 185.476562 C 161.429688 183.847656 161.605469 182.238281 161.605469 180.671875 L 161.601562 180.214844 L 161.976562 180.480469 C 162.894531 181.132812 163.765625 181.796875 164.589844 182.46875 Z M 152.972656 166.480469 C 152.515625 165.746094 152.015625 165.050781 151.480469 164.398438 C 150.453125 163.152344 149.28125 162.058594 147.964844 161.125 C 148.054688 161.5 148.125 161.875 148.175781 162.25 C 149.398438 166.511719 148.808594 171.566406 149.6875 174.914062 C 149.773438 174.945312 149.855469 174.980469 149.941406 175.011719 C 150.039062 174 150.234375 172.980469 150.527344 171.953125 C 151.039062 170.148438 151.855469 168.324219 152.972656 166.480469 Z M 147.539062 174.15625 C 147.144531 172.214844 147.355469 170.199219 147.574219 168.128906 C 147.832031 165.679688 148.097656 163.15625 147.34375 160.636719 L 147.160156 160.011719 L 147.703125 160.371094 C 149.273438 161.410156 150.65625 162.648438 151.84375 164.09375 C 152.347656 164.703125 152.816406 165.351562 153.25 166.03125 C 153.738281 165.253906 154.285156 164.472656 154.882812 163.691406 L 155.050781 163.46875 L 155.242188 163.671875 C 158.976562 167.6875 161.652344 171.585938 163.265625 175.363281 C 164.359375 177.921875 164.964844 180.425781 165.089844 182.878906 C 169.707031 186.742188 172.828125 190.90625 174.441406 195.363281 C 174.757812 196.226562 175.011719 197.101562 175.210938 197.984375 L 175.296875 197.65625 L 175.578125 196.542969 C 175.910156 195.214844 176.207031 194.015625 176.46875 192.9375 C 176.730469 191.882812 176.972656 190.871094 177.203125 189.910156 L 177.300781 189.488281 L 177.601562 189.796875 C 179.945312 192.210938 181.855469 194.710938 183.332031 197.304688 C 183.027344 193.140625 183.917969 189.667969 185.902344 186.667969 C 186.144531 186.300781 186.402344 185.941406 186.679688 185.585938 C 186.078125 183.742188 184.46875 182.925781 182.625 181.992188 C 180.257812 180.792969 177.519531 179.40625 175.925781 175.496094 C 175.261719 173.863281 174.828125 171.949219 174.625 169.753906 C 174.421875 167.574219 174.453125 165.113281 174.714844 162.371094 L 174.777344 161.691406 L 175.144531 162.265625 C 175.480469 162.78125 175.871094 163.261719 176.328125 163.707031 C 176.785156 164.148438 177.304688 164.558594 177.890625 164.929688 C 179.503906 165.957031 181.179688 166.453125 182.824219 166.941406 C 183.054688 167.011719 183.289062 167.078125 183.519531 167.148438 C 183.878906 165.066406 184.644531 163.042969 185.816406 161.078125 C 185.980469 160.800781 186.152344 160.527344 186.332031 160.253906 C 185.484375 159.734375 184.519531 159.433594 183.523438 159.117188 C 181.304688 158.421875 178.917969 157.675781 177.125 154.492188 C 175.847656 152.222656 175.605469 148.773438 175.359375 145.289062 C 175.191406 142.917969 175.023438 140.527344 174.527344 138.519531 L 174.433594 138.144531 L 174.808594 138.230469 C 176.898438 138.714844 178.800781 139.417969 180.515625 140.335938 C 180.761719 139.128906 181.128906 137.894531 181.625 136.632812 C 182.609375 134.105469 184.101562 131.464844 186.089844 128.714844 L 186.304688 128.414062 L 186.488281 128.734375 C 188.695312 132.625 190.011719 136.488281 190.433594 140.324219 C 190.804688 143.703125 190.480469 147.058594 189.464844 150.390625 C 190.066406 151.796875 190.574219 153.324219 190.980469 154.960938 C 192.183594 153.875 193.53125 152.808594 195.015625 151.765625 L 195.285156 151.574219 L 195.378906 151.890625 C 197.1875 157.902344 197.691406 163.101562 196.890625 167.484375 C 196.234375 171.058594 194.714844 174.085938 192.328125 176.566406 C 192.367188 176.925781 192.390625 177.289062 192.398438 177.664062 C 192.417969 178.597656 192.335938 179.585938 192.160156 180.621094 C 194.558594 178.996094 197.417969 177.515625 200.703125 176.105469 L 201.007812 175.972656 L 201.03125 176.308594 C 201.203125 179.0625 201.105469 181.59375 200.730469 183.894531 C 200.359375 186.203125 199.710938 188.289062 198.789062 190.144531 C 197.644531 192.445312 195.488281 194.457031 193.421875 196.386719 C 191.9375 197.769531 190.503906 199.109375 189.550781 200.457031 C 190.703125 199.628906 192.042969 198.972656 193.574219 198.488281 C 195.105469 198 196.800781 197.820312 198.5 197.675781 C 199.699219 193.511719 201.886719 188.59375 205.066406 182.925781 L 205.210938 182.667969 L 205.429688 182.867188 C 207.402344 184.675781 208.992188 186.570312 210.199219 188.5625 C 211.144531 187.300781 212.324219 186.148438 213.746094 185.109375 C 213.394531 184.496094 212.898438 183.957031 212.371094 183.382812 C 211.070312 181.960938 209.578125 180.328125 209.34375 176.886719 C 209.167969 174.226562 209.851562 171.433594 210.582031 168.472656 C 211.28125 165.625 212.019531 162.617188 212.054688 159.449219 L 212.0625 158.894531 L 212.453125 159.277344 C 213.757812 160.542969 214.917969 161.8125 215.945312 163.085938 C 216.511719 161.363281 217.28125 159.578125 218.265625 157.734375 C 219.761719 154.925781 221.746094 151.976562 224.222656 148.890625 L 224.398438 148.667969 L 224.492188 148.933594 C 225.082031 150.609375 225.472656 152.484375 225.65625 154.558594 C 225.75 155.597656 225.792969 156.6875 225.78125 157.828125 C 227 157.21875 228.300781 156.699219 229.691406 156.273438 L 229.992188 156.179688 L 229.996094 156.496094 C 230.066406 162.054688 229.300781 166.703125 227.703125 170.441406 C 226.335938 173.640625 224.363281 176.175781 221.777344 178.046875 C 221.765625 179.128906 221.660156 180.214844 221.460938 181.300781 C 223.570312 180.597656 225.917969 180.003906 228.5 179.527344 L 228.828125 179.464844 L 228.777344 179.796875 C 227.753906 186.179688 225.796875 191.1875 222.90625 194.816406 C 220.3125 198.074219 216.972656 200.21875 212.886719 201.257812 C 212.789062 202.066406 212.644531 202.878906 212.453125 203.707031 C 214.355469 203.363281 216.394531 203.085938 218.570312 202.867188 L 219.546875 202.769531 L 218.71875 203.304688 C 217.332031 204.199219 215.554688 207.652344 213.722656 211.210938 C 212.230469 214.101562 210.707031 217.0625 209.292969 218.832031 C 206.425781 222.414062 202.933594 225.257812 198.847656 227.320312 C 198.347656 227.570312 197.929688 227.75 197.566406 227.90625 C 196.34375 228.433594 195.726562 228.699219 194.890625 230.535156 C 194.132812 232.1875 193.554688 234.585938 193.148438 237.722656 C 192.816406 240.296875 192.601562 243.363281 192.507812 246.925781 L 192.035156 246.925781 C 192.128906 243.339844 192.347656 240.25 192.679688 237.660156 C 193.09375 234.476562 193.683594 232.035156 194.460938 230.339844 C 195.375 228.335938 196.046875 228.046875 197.382812 227.46875 C 197.746094 227.3125 198.164062 227.132812 198.636719 226.894531 C 202.660156 224.867188 206.101562 222.058594 208.925781 218.535156 C 210.308594 216.804688 211.824219 213.863281 213.300781 210.992188 C 214.882812 207.921875 216.425781 204.929688 217.769531 203.503906 C 216.917969 203.90625 215.46875 204.554688 213.738281 205.191406 C 211.285156 206.09375 208.75 206.84375 206.335938 207.671875 C 195.824219 211.28125 194.6875 215.515625 193.6875 224.664062 C 193.785156 225.796875 193.777344 226.996094 193.449219 228.460938 C 192.574219 232.382812 191.898438 235.46875 191.457031 238.636719 C 191.097656 241.1875 190.890625 243.792969 190.855469 246.925781 L 190.382812 246.925781 C 190.421875 243.765625 190.628906 241.140625 190.988281 238.570312 C 191.433594 235.390625 192.113281 232.289062 192.988281 228.355469 C 193.460938 226.25 193.246094 224.699219 193.019531 223.070312 C 192.835938 221.757812 192.648438 220.398438 192.789062 218.664062 C 193.132812 214.394531 195.277344 211.3125 198.269531 209.066406 C 198.242188 209.007812 198.21875 208.945312 198.195312 208.886719 C 196.757812 210.027344 195.273438 211 193.8125 211.953125 C 190.984375 213.804688 188.257812 215.589844 186.226562 218.410156 C 186.148438 218.738281 186.066406 219.058594 185.984375 219.375 C 185.570312 220.996094 185.1875 222.488281 185.230469 224.519531 C 185.28125 226.789062 185.609375 229.796875 186.210938 233.542969 C 186.8125 237.277344 187.6875 241.738281 188.832031 246.925781 L 188.351562 246.925781 C 187.210938 241.769531 186.34375 237.332031 185.746094 233.617188 C 185.140625 229.855469 184.8125 226.824219 184.757812 224.53125 C 184.714844 222.433594 185.101562 220.910156 185.527344 219.257812 C 185.753906 218.371094 185.992188 217.445312 186.175781 216.363281 C 186.996094 211.519531 186.664062 206.910156 185.183594 202.542969 C 183.734375 198.285156 181.195312 194.25 177.5625 190.441406 C 177.472656 190.804688 177.382812 191.191406 177.28125 191.601562 C 176.679688 197.589844 175.359375 205.699219 176.804688 210.875 C 178.289062 216.1875 181.503906 217.699219 182.957031 222.011719 C 183.386719 223.292969 183.722656 224.789062 183.957031 226.496094 C 185.121094 235.105469 186.296875 241.914062 187.484375 246.925781 L 186.519531 246.925781 C 185.054688 239.703125 184.363281 234.738281 183.855469 231.113281 C 183.410156 227.933594 183.109375 225.785156 182.5625 224.058594 C 182.484375 223.804688 182.398438 223.558594 182.3125 223.324219 C 182.230469 223.101562 182.148438 222.898438 182.070312 222.710938 C 181.691406 221.847656 180.894531 220.9375 179.964844 219.921875 C 180.0625 221.933594 180.046875 224.039062 180.035156 226.070312 C 180.023438 228.195312 180.011719 230.242188 180.125 232.027344 C 180.292969 234.613281 180.542969 237.269531 180.871094 239.988281 C 181.148438 242.257812 181.480469 244.570312 181.867188 246.925781 L 181.386719 246.925781 C 181.003906 244.585938 180.675781 242.292969 180.402344 240.046875 C 180.070312 237.324219 179.820312 234.660156 179.652344 232.054688 C 179.539062 230.269531 179.550781 228.207031 179.566406 226.070312 C 179.578125 223.851562 179.59375 221.546875 179.464844 219.378906 C 178.148438 217.953125 176.671875 216.316406 175.671875 214.265625 C 174.765625 212.40625 174.234375 210.695312 173.976562 209.050781 C 171.785156 208.21875 169.074219 207.863281 166.394531 207.507812 C 164.308594 207.230469 162.238281 206.957031 160.4375 206.46875 C 159.246094 206.144531 158.050781 205.789062 156.847656 205.40625 C 155.8125 205.074219 154.761719 204.71875 153.699219 204.339844 C 153.835938 204.664062 153.96875 204.980469 154.101562 205.292969 C 157.324219 210.429688 160.929688 214.09375 164.925781 216.289062 C 169.144531 218.609375 171.710938 218.289062 174.960938 222.992188 C 176.476562 225.1875 177.570312 227.941406 178.234375 231.261719 C 178.785156 234.664062 179.375 239.886719 180.003906 246.925781 L 179.113281 246.925781 L 177.941406 234.542969 C 177.6875 232.605469 177.292969 230.929688 176.75 229.507812 C 176.210938 228.101562 175.53125 226.945312 174.710938 226.046875 C 172.167969 223.253906 169.699219 222.054688 167.242188 220.855469 C 162.625 218.609375 158.054688 216.378906 153.058594 204.023438 L 152.859375 203.527344 L 153.359375 203.710938 C 154.570312 204.152344 155.78125 204.566406 156.988281 204.953125 C 158.191406 205.335938 159.382812 205.6875 160.558594 206.007812 L 160.636719 206.03125 C 159.058594 203.171875 158.847656 199.988281 159.179688 196.667969 C 158.160156 196.324219 157.039062 196.164062 155.882812 196 C 152.675781 195.539062 149.238281 195.046875 146.972656 190.691406 C 146.011719 188.851562 145.351562 186.503906 144.996094 183.660156 C 144.636719 180.828125 144.582031 177.5 144.820312 173.675781 L 144.835938 173.386719 L 145.113281 173.460938 C 145.941406 173.675781 146.75 173.90625 147.539062 174.15625 " fill-opacity="1" fill-rule="evenodd"/></g></svg>