<svg xmlns="http://www.w3.org/2000/svg" xmlns:xlink="http://www.w3.org/1999/xlink" width="500" zoomAndPan="magnify" viewBox="0 0 375 374.999991" height="500" preserveAspectRatio="xMidYMid meet" version="1.0"><defs><clipPath id="id1"><path d="M 149 134.550781 L 225.84375 134.550781 L 225.84375 240.785156 L 149 240.785156 Z M 149 134.550781 " clip-rule="nonzero"/></clipPath><clipPath id="id2"><path d="M 148.921875 134.285156 L 226.027344 134.285156 L 226.027344 240.785156 L 148.921875 240.785156 Z M 148.921875 134.285156 " clip-rule="nonzero"/></clipPath></defs><g clip-path="url(#id1)"><path fill="#181c3f" d="M 151.804688 175.710938 C 150.828125 171.820312 152.847656 167.53125 151.539062 163.179688 C 153.628906 164.550781 155.339844 166.324219 156.671875 168.496094 C 157.15625 167.707031 157.707031 166.914062 158.316406 166.117188 C 163.96875 172.160156 166.917969 177.898438 167.160156 183.335938 C 172.460938 187.722656 175.570312 192.535156 176.496094 197.773438 C 176.671875 197.058594 176.863281 196.324219 177.054688 195.5625 C 177.640625 193.234375 178.128906 191.246094 178.523438 189.601562 C 180.90625 192.039062 182.789062 194.578125 184.171875 197.21875 C 183.597656 192.546875 184.640625 188.832031 187.117188 185.710938 C 185.9375 181.695312 179.9375 182.800781 177.359375 176.515625 C 176.171875 173.617188 175.8125 169.71875 176.277344 164.820312 C 176.894531 165.777344 177.746094 166.597656 178.824219 167.28125 C 180.589844 168.398438 182.421875 168.824219 184.195312 169.371094 C 184.546875 167.117188 185.4375 164.9375 186.867188 162.832031 C 184.390625 161.183594 180.808594 161.804688 178.433594 157.613281 C 176.523438 154.242188 177.214844 147.785156 176.105469 143.316406 C 178.078125 143.769531 179.867188 144.4375 181.464844 145.328125 C 182.078125 142.019531 183.761719 138.46875 186.519531 134.675781 C 190.261719 141.230469 191.144531 147.6875 189.167969 154.046875 C 189.765625 155.421875 190.257812 156.917969 190.640625 158.542969 C 191.789062 157.488281 193.089844 156.453125 194.535156 155.441406 C 197.496094 165.222656 196.570312 172.566406 191.761719 177.480469 C 191.914062 178.757812 191.835938 180.15625 191.527344 181.671875 C 193.769531 180.105469 196.484375 178.6875 199.636719 177.34375 C 199.945312 182.257812 199.277344 186.367188 197.632812 189.664062 C 195.675781 193.585938 190.28125 196.632812 188.675781 199.945312 C 189.882812 198.855469 191.382812 198.03125 193.175781 197.464844 C 194.582031 197.019531 196.15625 196.863281 197.726562 196.734375 C 198.796875 192.976562 200.78125 188.523438 203.679688 183.378906 C 205.539062 185.074219 207.015625 186.855469 208.113281 188.726562 C 209.019531 187.460938 210.1875 186.320312 211.617188 185.300781 C 210.570312 183.28125 207.875 182.253906 207.574219 177.832031 C 207.261719 173.183594 209.957031 168.015625 210.023438 162.175781 C 211.277344 163.386719 212.386719 164.601562 213.355469 165.820312 C 214.601562 161.835938 217.121094 157.484375 220.914062 152.773438 C 221.738281 155.097656 222.125 157.851562 222.070312 161.03125 C 223.226562 160.4375 224.472656 159.933594 225.808594 159.523438 C 225.925781 168.765625 223.449219 175.183594 218.382812 178.777344 C 218.375 179.894531 218.257812 181.011719 218.03125 182.136719 C 220.015625 181.453125 222.242188 180.882812 224.710938 180.429688 C 222.960938 191.285156 218.179688 197.667969 210.367188 199.578125 C 210.265625 200.445312 210.105469 201.324219 209.886719 202.21875 C 211.691406 201.886719 213.632812 201.613281 215.71875 201.410156 C 213.371094 202.917969 209.988281 211.878906 207.148438 215.410156 C 204.566406 218.621094 201.445312 221.144531 197.78125 222.980469 C 195.792969 223.976562 195.121094 223.757812 194.105469 225.972656 C 192.851562 228.710938 192.125 233.648438 191.933594 240.792969 L 190.441406 240.792969 C 190.515625 234.457031 191.359375 230.527344 192.792969 224.148438 C 193.5625 220.707031 192.328125 218.90625 192.613281 215.410156 C 192.875 212.175781 194.328125 209.484375 196.972656 207.332031 C 197.179688 207.164062 197.394531 207 197.617188 206.835938 C 197.53125 206.648438 197.453125 206.453125 197.378906 206.257812 C 193.488281 209.398438 189.132812 211.101562 186.277344 215.070312 C 185.824219 216.921875 185.308594 218.429688 185.359375 220.660156 C 185.449219 224.75 186.535156 231.460938 188.609375 240.792969 L 186.953125 240.792969 C 184.460938 228.570312 184.433594 223.535156 183.363281 220.179688 C 183.210938 219.695312 183.058594 219.28125 182.910156 218.945312 C 182.5 218.011719 181.589844 217.050781 180.566406 215.945312 C 180.804688 219.796875 180.53125 224.117188 180.746094 227.414062 C 181.023438 231.6875 181.546875 236.144531 182.3125 240.792969 L 180.257812 240.792969 L 179.195312 229.636719 C 178.734375 226.125 177.742188 223.539062 176.222656 221.882812 C 169.601562 214.664062 163.605469 219.160156 156.699219 202.152344 C 158.910156 202.957031 161.082031 203.648438 163.222656 204.226562 C 163.410156 204.277344 163.601562 204.324219 163.796875 204.371094 C 162.136719 201.691406 161.921875 198.652344 162.261719 195.476562 C 158.789062 194.226562 153.96875 195.472656 151.1875 190.15625 C 149.476562 186.886719 148.835938 181.824219 149.265625 174.972656 C 150.136719 175.199219 150.984375 175.445312 151.804688 175.710938 " fill-opacity="1" fill-rule="evenodd"/></g><g clip-path="url(#id2)"><path fill="#274393" d="M 210.613281 199.296875 C 214.144531 198.371094 217.035156 196.503906 219.285156 193.691406 C 221.804688 190.546875 223.527344 186.210938 224.453125 180.695312 C 223.878906 180.804688 223.320312 180.917969 222.777344 181.039062 C 216.597656 183.15625 212.136719 186.414062 209.398438 190.816406 C 209.648438 191.414062 209.863281 192.019531 210.039062 192.636719 C 210.65625 194.757812 210.847656 196.976562 210.613281 199.296875 Z M 217.847656 181.972656 C 218.410156 179.074219 218.234375 176.203125 217.316406 173.363281 C 216.148438 169.753906 213.785156 166.191406 210.226562 162.671875 C 210.441406 164.101562 210.59375 166.402344 210.410156 168.710938 C 210.148438 171.972656 209.464844 175.042969 209.8125 178.332031 C 210.03125 180.4375 211.5 182.320312 212.308594 184.578125 C 213.878906 183.582031 215.726562 182.710938 217.847656 181.972656 Z M 218.59375 178.359375 C 220.746094 176.742188 222.398438 174.585938 223.558594 171.882812 C 224.953125 168.640625 225.632812 164.617188 225.597656 159.8125 C 221.351562 162.261719 217.683594 166.859375 216.191406 169.683594 C 216.828125 170.859375 217.339844 172.042969 217.722656 173.234375 C 218.273438 174.929688 218.5625 176.640625 218.59375 178.359375 Z M 221.929688 160.859375 C 221.941406 159.792969 221.90625 158.773438 221.816406 157.804688 C 221.660156 156.066406 221.34375 154.488281 220.863281 153.0625 C 219.214844 155.128906 215.8125 164.113281 214.933594 167.039062 C 215.84375 165.695312 216.898438 164.5 218.097656 163.453125 C 219.242188 162.453125 220.519531 161.589844 221.929688 160.859375 Z M 186.882812 204.476562 C 187.382812 207.34375 187.371094 210.320312 186.84375 213.398438 C 186.800781 213.664062 186.75 213.921875 186.699219 214.171875 C 188.496094 212 190.757812 210.527344 193.09375 209.003906 C 195.46875 207.460938 197.921875 205.863281 200.027344 203.425781 C 201.105469 202.171875 202.039062 200.832031 202.828125 199.414062 C 203.515625 198.171875 204.089844 196.867188 204.554688 195.5 C 204.402344 195.589844 204.246094 195.675781 204.082031 195.757812 C 198.828125 200 191.054688 197.378906 186.882812 204.476562 Z M 185.035156 198.503906 C 185.371094 199.25 185.671875 200.003906 185.929688 200.765625 C 186.117188 201.3125 186.285156 201.863281 186.429688 202.417969 C 186.964844 201.46875 187.621094 200.632812 188.402344 199.902344 C 188.4375 199.871094 188.46875 199.84375 188.503906 199.8125 C 189.300781 198.195312 190.957031 196.660156 192.683594 195.058594 C 194.523438 193.351562 196.445312 191.566406 197.441406 189.570312 C 198.253906 187.941406 198.828125 186.109375 199.15625 184.078125 C 199.476562 182.125 199.570312 179.984375 199.441406 177.660156 C 198.988281 177.855469 198.539062 178.050781 198.105469 178.25 C 189.746094 183.449219 185.390625 190.203125 185.035156 198.503906 Z M 187.585938 184.820312 C 188.632812 183.652344 189.882812 182.566406 191.335938 181.546875 C 191.542969 180.488281 191.640625 179.492188 191.621094 178.550781 C 191.582031 176.636719 191.070312 174.972656 190.078125 173.558594 C 188.105469 170.742188 185.726562 170.042969 183.277344 169.316406 C 181.761719 168.871094 180.21875 168.414062 178.710938 167.460938 C 178.160156 167.113281 177.664062 166.726562 177.230469 166.308594 C 176.941406 166.027344 176.675781 165.734375 176.4375 165.421875 C 176.414062 165.714844 176.394531 166.003906 176.375 166.289062 C 176.707031 170.296875 177.574219 173.480469 178.976562 175.84375 C 181.492188 180.085938 185.296875 179.824219 187.136719 183.621094 C 187.320312 184 187.472656 184.402344 187.585938 184.820312 Z M 177.910156 147.558594 C 178.582031 150.332031 178.824219 153.402344 180.066406 155.878906 C 181.96875 159.664062 184.847656 159.082031 187.480469 161.625 C 188.3125 160.554688 189.289062 159.5 190.40625 158.46875 C 189.496094 154.691406 187.996094 151.601562 185.910156 149.191406 C 183.515625 146.433594 180.34375 144.570312 176.390625 143.601562 C 176.921875 144.363281 177.558594 146.121094 177.910156 147.558594 Z M 187.039062 170.261719 C 188.242188 170.90625 189.386719 171.824219 190.429688 173.316406 C 191.195312 174.40625 191.6875 175.640625 191.910156 177.015625 C 193.875 174.890625 195.132812 172.324219 195.6875 169.320312 C 196.386719 165.519531 195.960938 161.007812 194.417969 155.789062 C 190.96875 158.824219 187.675781 166.363281 187.039062 170.261719 Z M 183.78125 146.59375 C 184.671875 147.28125 185.488281 148.054688 186.230469 148.914062 C 187.367188 150.222656 188.335938 151.730469 189.128906 153.433594 C 189.917969 150.652344 190.160156 147.851562 189.847656 145.035156 C 189.484375 141.742188 188.367188 138.421875 186.496094 135.074219 C 185.019531 137.613281 183.804688 143.9375 183.78125 146.59375 Z M 199.660156 196.355469 C 201.648438 196.160156 203.5 195.828125 204.820312 194.796875 L 205.359375 194.378906 L 205.15625 195.027344 C 204.652344 196.644531 204 198.175781 203.199219 199.621094 C 202.398438 201.066406 201.449219 202.429688 200.347656 203.703125 C 200.050781 204.046875 199.75 204.375 199.441406 204.6875 C 199.488281 204.910156 199.542969 205.125 199.601562 205.335938 C 201.117188 204.515625 202.761719 203.859375 204.441406 203.332031 C 206.039062 202.828125 207.796875 202.394531 209.710938 202.035156 C 210.5 198.746094 210.472656 195.652344 209.632812 192.753906 C 208.6875 189.503906 206.722656 186.492188 203.734375 183.71875 C 203.515625 184.109375 203.300781 184.496094 203.09375 184.875 C 201.417969 189.246094 200.273438 193.074219 199.660156 196.355469 Z M 176.277344 197.765625 C 176.085938 196.691406 175.800781 195.636719 175.421875 194.601562 C 173.71875 189.925781 170.125 185.613281 164.644531 181.660156 C 164.640625 181.773438 164.636719 181.882812 164.632812 181.996094 C 166.449219 189.527344 162.363281 197.421875 166.894531 204.710938 C 167.457031 204.792969 168.03125 204.867188 168.605469 204.945312 C 170.964844 205.253906 173.351562 205.566406 175.332031 206.269531 C 174.980469 203.417969 175.527344 200.765625 176.277344 197.765625 Z M 163.699219 186.339844 C 162.390625 183.203125 160.605469 180.949219 158.421875 179.269531 C 155.917969 177.339844 152.882812 176.15625 149.464844 175.246094 C 149.441406 175.640625 149.421875 176.03125 149.402344 176.414062 C 149.894531 180.960938 150.816406 184.527344 152.175781 187.121094 C 155.085938 192.671875 159.429688 191.765625 162.25 193.921875 C 162.46875 192.484375 162.765625 191.027344 163.066406 189.566406 C 163.289062 188.488281 163.507812 187.410156 163.699219 186.339844 Z M 166.917969 182.863281 C 166.769531 180.832031 166.238281 178.761719 165.328125 176.644531 C 163.914062 173.351562 161.582031 169.953125 158.332031 166.445312 C 156.726562 169.613281 156.476562 175.390625 156.492188 177.492188 C 157.257812 177.921875 157.988281 178.398438 158.683594 178.933594 C 160.777344 180.546875 162.519531 182.667969 163.828125 185.566406 C 164.0625 184.101562 164.222656 182.65625 164.222656 181.25 L 164.21875 180.835938 L 164.558594 181.074219 C 165.386719 181.664062 166.171875 182.257812 166.917969 182.863281 Z M 156.421875 168.496094 C 156.007812 167.832031 155.558594 167.207031 155.074219 166.621094 C 154.144531 165.5 153.085938 164.519531 151.898438 163.679688 C 151.976562 164.019531 152.039062 164.355469 152.085938 164.691406 C 153.191406 168.523438 152.660156 173.066406 153.453125 176.074219 C 153.53125 176.101562 153.605469 176.132812 153.679688 176.164062 C 153.769531 175.253906 153.945312 174.335938 154.210938 173.414062 C 154.675781 171.792969 155.410156 170.152344 156.421875 168.496094 Z M 151.511719 175.394531 C 151.15625 173.648438 151.347656 171.835938 151.542969 169.976562 C 151.777344 167.773438 152.015625 165.507812 151.335938 163.242188 L 151.167969 162.679688 L 151.660156 163.003906 C 153.078125 163.9375 154.328125 165.050781 155.402344 166.351562 C 155.855469 166.898438 156.277344 167.480469 156.671875 168.09375 C 157.113281 167.390625 157.605469 166.691406 158.148438 165.988281 L 158.300781 165.785156 L 158.472656 165.972656 C 161.847656 169.578125 164.265625 173.082031 165.722656 176.476562 C 166.710938 178.777344 167.257812 181.027344 167.371094 183.230469 C 171.542969 186.707031 174.363281 190.445312 175.824219 194.453125 C 176.105469 195.230469 176.335938 196.015625 176.519531 196.808594 L 176.59375 196.511719 L 176.847656 195.511719 C 177.148438 194.320312 177.417969 193.238281 177.65625 192.273438 C 177.886719 191.324219 178.109375 190.414062 178.316406 189.550781 L 178.40625 189.175781 L 178.675781 189.449219 C 180.792969 191.617188 182.519531 193.867188 183.855469 196.195312 C 183.578125 192.453125 184.386719 189.332031 186.175781 186.636719 C 186.394531 186.308594 186.628906 185.984375 186.878906 185.664062 C 186.335938 184.007812 184.878906 183.273438 183.21875 182.433594 C 181.078125 181.355469 178.605469 180.109375 177.164062 176.597656 C 176.5625 175.128906 176.167969 173.410156 175.988281 171.4375 C 175.804688 169.476562 175.832031 167.265625 176.066406 164.800781 L 176.125 164.191406 L 176.457031 164.707031 C 176.757812 165.171875 177.113281 165.601562 177.527344 166 C 177.941406 166.398438 178.410156 166.765625 178.9375 167.101562 C 180.398438 168.023438 181.910156 168.46875 183.394531 168.90625 C 183.605469 168.96875 183.816406 169.03125 184.023438 169.09375 C 184.347656 167.222656 185.039062 165.40625 186.101562 163.636719 C 186.25 163.390625 186.402344 163.144531 186.566406 162.898438 C 185.800781 162.429688 184.929688 162.160156 184.03125 161.878906 C 182.023438 161.25 179.867188 160.582031 178.246094 157.71875 C 177.09375 155.679688 176.871094 152.578125 176.648438 149.449219 C 176.5 147.316406 176.347656 145.171875 175.898438 143.367188 L 175.8125 143.027344 L 176.152344 143.105469 C 178.042969 143.539062 179.761719 144.171875 181.3125 145 C 181.53125 143.914062 181.863281 142.804688 182.3125 141.667969 C 183.203125 139.398438 184.550781 137.027344 186.347656 134.550781 L 186.542969 134.285156 L 186.707031 134.570312 C 188.703125 138.066406 189.890625 141.539062 190.273438 144.988281 C 190.609375 148.023438 190.316406 151.039062 189.394531 154.03125 C 189.941406 155.300781 190.398438 156.667969 190.765625 158.140625 C 191.851562 157.164062 193.070312 156.207031 194.414062 155.269531 L 194.65625 155.097656 L 194.742188 155.378906 C 196.375 160.785156 196.832031 165.457031 196.105469 169.398438 C 195.515625 172.605469 194.140625 175.328125 191.984375 177.558594 C 192.019531 177.882812 192.042969 178.207031 192.046875 178.542969 C 192.0625 179.386719 191.992188 180.273438 191.832031 181.203125 C 194 179.742188 196.585938 178.410156 199.550781 177.144531 L 199.828125 177.027344 L 199.847656 177.328125 C 200.003906 179.804688 199.914062 182.074219 199.578125 184.144531 C 199.242188 186.21875 198.65625 188.09375 197.824219 189.761719 C 196.789062 191.828125 194.839844 193.640625 192.972656 195.371094 C 191.632812 196.613281 190.335938 197.816406 189.472656 199.03125 C 190.515625 198.285156 191.726562 197.695312 193.113281 197.257812 C 194.492188 196.824219 196.027344 196.660156 197.5625 196.53125 C 198.644531 192.789062 200.625 188.367188 203.496094 183.273438 L 203.625 183.042969 L 203.824219 183.222656 C 205.605469 184.84375 207.042969 186.550781 208.132812 188.339844 C 208.988281 187.203125 210.054688 186.171875 211.339844 185.238281 C 211.019531 184.6875 210.574219 184.199219 210.097656 183.683594 C 208.921875 182.40625 207.570312 180.941406 207.363281 177.847656 C 207.199219 175.457031 207.820312 172.945312 208.480469 170.285156 C 209.113281 167.726562 209.78125 165.023438 209.8125 162.175781 L 209.816406 161.679688 L 210.171875 162.023438 C 211.347656 163.15625 212.398438 164.296875 213.328125 165.445312 C 213.835938 163.894531 214.535156 162.289062 215.421875 160.632812 C 216.777344 158.109375 218.570312 155.457031 220.804688 152.683594 L 220.964844 152.484375 L 221.050781 152.726562 C 221.582031 154.230469 221.933594 155.917969 222.101562 157.78125 C 222.183594 158.714844 222.222656 159.695312 222.214844 160.71875 C 223.3125 160.171875 224.492188 159.703125 225.75 159.320312 L 226.019531 159.238281 L 226.023438 159.523438 C 226.085938 164.515625 225.394531 168.691406 223.953125 172.054688 C 222.714844 174.929688 220.929688 177.207031 218.59375 178.890625 C 218.585938 179.859375 218.488281 180.835938 218.3125 181.816406 C 220.21875 181.183594 222.335938 180.648438 224.671875 180.21875 L 224.96875 180.164062 L 224.921875 180.460938 C 223.996094 186.199219 222.230469 190.699219 219.617188 193.960938 C 217.273438 196.886719 214.253906 198.816406 210.5625 199.75 C 210.472656 200.476562 210.34375 201.207031 210.167969 201.949219 C 211.886719 201.640625 213.730469 201.390625 215.695312 201.195312 L 216.578125 201.109375 L 215.832031 201.589844 C 214.582031 202.394531 212.972656 205.496094 211.316406 208.695312 C 209.96875 211.292969 208.59375 213.957031 207.3125 215.542969 C 204.726562 218.761719 201.566406 221.320312 197.875 223.171875 C 197.425781 223.398438 197.046875 223.558594 196.71875 223.699219 C 195.613281 224.175781 195.054688 224.414062 194.296875 226.0625 C 193.617188 227.550781 193.089844 229.703125 192.726562 232.523438 C 192.425781 234.835938 192.230469 237.589844 192.144531 240.792969 L 191.71875 240.792969 C 191.804688 237.570312 192 234.792969 192.304688 232.464844 C 192.675781 229.605469 193.210938 227.410156 193.910156 225.886719 C 194.738281 224.085938 195.347656 223.824219 196.550781 223.308594 C 196.882812 223.167969 197.257812 223.003906 197.683594 222.789062 C 201.320312 220.964844 204.433594 218.445312 206.980469 215.277344 C 208.234375 213.722656 209.601562 211.078125 210.9375 208.5 C 212.367188 205.738281 213.761719 203.046875 214.976562 201.769531 C 214.207031 202.128906 212.898438 202.714844 211.332031 203.285156 C 209.113281 204.09375 206.824219 204.769531 204.644531 205.515625 C 195.144531 208.757812 194.113281 212.5625 193.214844 220.785156 C 193.300781 221.804688 193.292969 222.882812 193 224.199219 C 192.207031 227.722656 191.597656 230.496094 191.195312 233.34375 C 190.871094 235.636719 190.6875 237.976562 190.652344 240.792969 L 190.226562 240.792969 C 190.261719 237.953125 190.449219 235.59375 190.773438 233.285156 C 191.175781 230.425781 191.789062 227.640625 192.582031 224.101562 C 193.007812 222.210938 192.8125 220.816406 192.609375 219.351562 C 192.445312 218.175781 192.273438 216.953125 192.398438 215.394531 C 192.710938 211.554688 194.648438 208.785156 197.351562 206.765625 C 197.328125 206.714844 197.308594 206.660156 197.285156 206.605469 C 195.988281 207.632812 194.644531 208.503906 193.328125 209.363281 C 190.769531 211.027344 188.308594 212.632812 186.472656 215.164062 C 186.398438 215.460938 186.324219 215.75 186.25 216.035156 C 185.875 217.488281 185.53125 218.828125 185.570312 220.65625 C 185.617188 222.699219 185.914062 225.402344 186.457031 228.765625 C 187 232.121094 187.789062 236.128906 188.828125 240.792969 L 188.390625 240.792969 C 187.359375 236.160156 186.578125 232.171875 186.035156 228.832031 C 185.488281 225.449219 185.191406 222.726562 185.144531 220.664062 C 185.101562 218.78125 185.457031 217.414062 185.839844 215.929688 C 186.042969 215.132812 186.257812 214.296875 186.425781 213.324219 C 187.167969 208.972656 186.867188 204.832031 185.527344 200.90625 C 184.21875 197.078125 181.925781 193.453125 178.640625 190.027344 C 178.5625 190.355469 178.476562 190.703125 178.386719 191.074219 C 177.84375 196.453125 176.652344 203.742188 177.957031 208.394531 C 179.296875 213.167969 182.203125 214.527344 183.515625 218.402344 C 183.90625 219.554688 184.207031 220.898438 184.417969 222.429688 C 185.472656 230.167969 186.535156 236.289062 187.605469 240.792969 L 186.734375 240.792969 C 185.414062 234.300781 184.785156 229.839844 184.328125 226.582031 C 183.925781 223.722656 183.65625 221.792969 183.160156 220.242188 C 183.089844 220.011719 183.011719 219.792969 182.933594 219.582031 C 182.859375 219.378906 182.785156 219.199219 182.714844 219.03125 C 182.371094 218.253906 181.652344 217.4375 180.8125 216.523438 C 180.898438 218.332031 180.886719 220.222656 180.875 222.050781 C 180.863281 223.960938 180.855469 225.800781 180.957031 227.402344 C 181.109375 229.726562 181.332031 232.113281 181.632812 234.558594 C 181.878906 236.597656 182.179688 238.675781 182.53125 240.792969 L 182.097656 240.792969 C 181.75 238.691406 181.453125 236.628906 181.207031 234.609375 C 180.910156 232.164062 180.683594 229.769531 180.53125 227.429688 C 180.425781 225.824219 180.4375 223.96875 180.449219 222.046875 C 180.464844 220.054688 180.476562 217.984375 180.359375 216.035156 C 179.167969 214.753906 177.835938 213.285156 176.933594 211.441406 C 176.113281 209.769531 175.632812 208.230469 175.398438 206.753906 C 173.421875 206.007812 170.96875 205.683594 168.550781 205.367188 C 166.664062 205.117188 164.792969 204.875 163.167969 204.433594 C 162.089844 204.140625 161.011719 203.824219 159.921875 203.476562 C 158.988281 203.179688 158.039062 202.859375 157.078125 202.519531 C 157.199219 202.808594 157.320312 203.09375 157.441406 203.375 C 160.351562 207.992188 163.613281 211.289062 167.222656 213.261719 C 171.035156 215.34375 173.355469 215.054688 176.292969 219.28125 C 177.660156 221.253906 178.648438 223.734375 179.25 226.714844 C 179.746094 229.773438 180.28125 234.464844 180.847656 240.792969 L 180.042969 240.792969 L 178.984375 229.664062 C 178.753906 227.925781 178.398438 226.417969 177.90625 225.140625 C 177.421875 223.875 176.804688 222.835938 176.066406 222.027344 C 173.765625 219.519531 171.535156 218.4375 169.316406 217.363281 C 165.144531 215.34375 161.011719 213.339844 156.5 202.234375 L 156.320312 201.789062 L 156.769531 201.953125 C 157.867188 202.351562 158.960938 202.722656 160.050781 203.070312 C 161.136719 203.414062 162.214844 203.730469 163.277344 204.019531 L 163.347656 204.039062 C 161.921875 201.472656 161.730469 198.609375 162.03125 195.625 C 161.109375 195.316406 160.09375 195.171875 159.050781 195.023438 C 156.152344 194.613281 153.046875 194.167969 151 190.253906 C 150.128906 188.597656 149.535156 186.492188 149.210938 183.933594 C 148.890625 181.390625 148.835938 178.398438 149.054688 174.960938 L 149.070312 174.703125 L 149.320312 174.765625 C 150.070312 174.960938 150.800781 175.167969 151.511719 175.394531 " fill-opacity="1" fill-rule="evenodd"/></g></svg>